{"glyphs":{"0":{"ha":511,"x_min":-7,"x_max":606,"o":"m 226 938 l 86 876 l 83 881 q 140 926 110 908 q 202 960 171 944 q 264 992 233 976 q 322 1031 294 1008 q 352 1055 331 1036 q 398 1094 374 1074 q 444 1129 422 1114 q 472 1144 465 1144 q 480 1142 475 1144 q 488 1139 485 1140 l 357 1031 l 361 1025 q 415 1032 389 1029 q 468 1035 440 1035 q 521 1030 496 1035 q 565 1013 546 1025 q 594 980 583 1001 q 606 925 606 958 q 580 817 606 876 q 512 697 554 758 q 415 578 469 636 q 301 476 360 521 q 184 405 242 432 q 78 378 126 378 q 38 388 54 378 q 11 413 21 397 q -3 449 1 429 q -7 490 -7 469 q 19 601 -7 542 q 83 720 46 661 q 161 834 121 779 q 229 932 201 889 l 226 938 m 465 992 q 393 975 429 982 q 321 958 357 968 q 272 924 300 953 q 212 853 243 896 q 151 759 181 810 q 97 658 121 708 q 58 565 72 608 q 43 494 43 521 q 54 449 43 468 q 96 431 65 431 q 185 455 135 431 q 287 518 235 479 q 388 608 339 557 q 476 711 438 658 q 539 815 515 764 q 563 906 563 865 q 556 949 563 933 q 536 972 549 964 q 506 984 524 981 q 465 992 488 988 z "},"1":{"ha":606,"x_min":-140,"x_max":675,"o":"m 219 443 q 360 472 290 458 q 504 485 431 485 q 538 476 522 485 q 567 456 553 467 q 465 444 522 450 q 351 430 408 439 q 240 405 293 421 q 153 364 188 389 l 150 382 q 82 363 117 375 q 12 338 47 350 q -58 315 -24 325 q -125 301 -93 304 l -139 311 q -140 322 -140 315 q -128 336 -140 332 q -110 343 -117 340 q -40 363 -86 350 q 53 393 6 376 q 140 428 101 410 q 188 465 179 446 q 260 601 219 535 q 344 733 300 668 q 435 862 389 799 q 525 988 481 925 q 489 976 515 988 q 426 945 463 964 q 349 904 390 926 q 269 863 308 882 q 196 831 229 844 q 143 818 163 818 l 126 831 l 136 849 q 353 953 247 901 q 565 1068 460 1006 q 608 1097 588 1082 q 653 1124 629 1113 l 674 1117 l 675 1094 l 665 1082 q 596 997 636 1047 q 512 890 556 947 q 424 772 468 833 q 340 651 379 710 q 269 538 300 592 q 219 443 238 485 z "},"2":{"ha":747,"x_min":4,"x_max":707,"o":"m 669 475 q 531 443 603 461 q 385 409 458 425 q 240 382 313 393 q 100 371 168 371 q 68 374 85 371 q 38 386 51 378 q 14 407 24 394 q 4 438 4 419 q 53 529 4 479 q 174 633 101 579 q 333 740 247 686 q 491 842 418 793 q 613 932 564 890 q 661 1001 661 974 q 650 1022 661 1014 q 624 1032 639 1029 q 594 1035 610 1035 q 571 1036 579 1036 q 450 1023 513 1036 q 329 985 388 1010 q 219 924 271 960 q 128 842 167 888 q 119 830 124 836 q 115 815 115 824 q 119 804 115 810 q 126 794 124 799 l 131 771 q 103 765 119 765 q 83 778 93 765 q 74 801 74 792 q 103 883 74 846 q 178 951 132 921 q 281 1006 224 982 q 397 1045 339 1029 q 506 1069 454 1061 q 590 1078 557 1078 q 627 1074 607 1078 q 665 1063 647 1071 q 694 1040 682 1054 q 707 1006 707 1026 q 659 919 707 967 q 538 819 611 872 q 381 713 465 767 q 224 610 297 660 q 103 516 151 560 q 56 440 56 472 q 73 423 56 428 q 100 418 90 418 q 219 430 160 418 q 339 456 279 442 q 458 483 399 471 q 575 496 517 496 q 619 492 597 496 q 663 483 640 489 l 669 475 z "},"3":{"ha":739,"x_min":-4,"x_max":668,"o":"m 189 953 q 178 965 183 958 q 172 979 172 971 q 190 1003 172 993 q 234 1022 207 1014 q 294 1035 261 1031 q 356 1044 326 1040 q 410 1049 386 1047 q 446 1050 435 1050 q 499 1049 463 1050 q 573 1040 536 1047 q 638 1019 610 1033 q 665 979 665 1004 q 634 933 665 960 q 562 878 603 906 q 481 828 521 851 q 422 792 440 804 q 489 764 447 779 q 570 728 531 749 q 639 683 610 708 q 668 625 668 657 q 641 549 668 586 q 570 481 614 513 q 472 424 526 450 q 363 381 417 399 q 259 353 308 363 q 176 343 210 343 q 122 347 153 343 q 63 363 90 351 q 15 393 35 374 q -4 444 -4 413 q 10 499 -4 478 q 53 539 25 521 q 42 505 47 522 q 38 469 38 488 q 49 429 38 444 q 80 406 61 414 q 121 394 99 397 q 163 390 143 390 q 231 399 188 390 q 324 424 274 408 q 427 461 375 439 q 522 509 479 483 q 591 564 564 535 q 618 624 618 593 q 583 672 618 651 q 506 709 549 692 q 429 744 464 726 q 394 786 394 763 q 412 822 394 804 q 455 856 429 839 q 511 888 481 872 q 568 920 542 904 q 613 951 594 936 q 633 981 632 965 q 602 1002 628 994 q 545 1014 576 1010 q 483 1019 514 1018 q 439 1021 453 1021 q 376 1019 414 1021 q 301 1010 339 1017 q 233 990 264 1003 q 189 953 201 976 z "},"4":{"ha":600,"x_min":76,"x_max":746,"o":"m 113 763 q 131 756 122 758 q 151 753 140 753 q 193 762 161 753 q 269 785 225 771 q 364 817 314 800 q 460 851 414 835 q 544 881 507 868 q 597 899 581 893 q 635 920 619 906 q 664 952 650 935 q 692 986 678 969 q 725 1014 706 1003 l 742 1011 l 746 992 q 738 980 743 985 q 729 969 733 975 q 502 672 606 826 q 300 358 399 518 q 274 320 288 338 q 242 289 261 303 l 240 307 q 263 381 240 336 q 322 477 286 425 q 399 585 357 529 q 478 692 440 640 q 543 788 515 744 q 579 860 571 832 q 475 818 531 843 q 363 769 419 793 q 248 729 306 746 q 139 713 190 713 q 96 724 115 713 q 76 764 76 736 q 103 830 76 785 q 164 924 129 875 q 233 1016 199 974 q 285 1072 268 1058 l 308 1072 l 307 1051 q 260 979 286 1014 q 208 910 233 944 q 157 840 182 875 q 113 763 132 804 z "},"5":{"ha":667,"x_min":-58,"x_max":903,"o":"m -28 411 q -27 380 -28 396 q -20 351 -26 364 q -3 329 -14 338 q 29 321 8 321 q 113 333 63 321 q 217 366 163 344 q 325 417 271 388 q 422 481 379 446 q 491 556 464 517 q 518 636 518 594 q 489 696 518 674 q 417 733 460 718 q 323 756 374 747 q 229 776 272 765 q 157 803 186 788 q 128 844 128 818 q 135 876 128 858 q 154 912 143 894 q 177 945 165 929 q 197 974 189 961 q 153 964 174 975 q 108 953 132 953 q 89 956 96 953 q 88 964 88 958 q 113 985 88 974 q 169 1008 138 996 q 233 1033 201 1019 q 276 1064 264 1047 q 285 1074 281 1069 q 297 1079 290 1079 q 304 1076 303 1079 l 311 1049 q 434 1076 372 1061 q 558 1103 496 1090 q 684 1124 621 1115 q 810 1132 747 1132 q 839 1131 822 1132 q 869 1124 856 1129 q 893 1109 883 1119 q 903 1081 903 1099 q 887 1051 903 1061 q 856 1033 871 1040 q 851 1046 851 1039 q 856 1066 851 1057 q 860 1086 860 1075 q 822 1093 840 1090 q 783 1096 803 1096 q 664 1087 725 1096 q 542 1065 603 1078 q 422 1036 482 1051 q 306 1008 361 1021 q 267 985 290 1006 q 222 940 244 965 q 183 888 199 914 q 167 849 167 863 q 196 826 167 835 q 268 807 225 817 q 363 785 311 797 q 457 754 414 774 q 529 706 500 735 q 558 633 558 676 q 532 543 558 588 q 463 458 506 499 q 365 384 419 418 q 254 325 310 350 q 147 286 199 300 q 56 272 94 272 q 19 276 39 272 q -19 288 -1 279 q -47 312 -36 297 q -58 347 -58 326 q -49 383 -58 367 q -28 411 -40 399 z "},"6":{"ha":636,"x_min":1,"x_max":631,"o":"m 186 569 l 190 592 q 248 648 217 621 q 315 697 279 675 q 389 731 350 718 q 468 743 428 743 q 556 658 556 743 q 535 582 556 621 q 481 507 515 543 q 405 440 447 471 q 317 385 363 408 q 228 348 272 361 q 150 335 185 335 q 41 368 81 335 q 1 474 1 401 q 32 600 1 533 q 113 731 63 667 q 226 856 163 796 q 358 963 290 915 q 492 1042 426 1011 q 611 1081 557 1072 l 631 1065 l 615 1050 q 590 1042 603 1044 q 564 1033 576 1039 q 460 983 517 1015 q 344 906 403 950 q 231 810 286 863 q 133 702 175 758 q 65 588 90 646 q 39 475 39 531 q 65 399 39 428 q 139 369 90 369 q 211 382 171 369 q 294 415 251 394 q 376 465 336 436 q 447 527 415 494 q 497 596 478 560 q 517 667 517 632 q 503 696 517 688 q 469 704 489 704 q 397 692 432 704 q 331 660 363 679 q 269 617 299 640 q 210 574 239 594 l 194 565 l 186 569 z "},"7":{"ha":608,"x_min":-1,"x_max":785,"o":"m 244 593 q 310 603 278 597 q 376 608 343 608 q 458 592 418 608 q 328 571 378 578 q 249 556 279 564 q 199 534 218 547 q 160 496 179 521 q 113 429 140 471 q 39 322 86 388 q 22 298 31 310 q 1 275 13 286 q -1 289 -1 283 q 19 335 -1 300 q 65 410 39 371 q 115 485 90 450 q 149 533 139 521 q 125 526 143 532 q 88 515 107 521 q 51 506 68 510 q 32 501 35 501 q 22 508 25 501 q 18 521 18 515 q 28 531 18 528 q 43 538 38 535 q 85 549 61 543 q 132 563 108 556 q 176 579 156 569 q 210 601 197 589 q 326 723 271 667 q 438 831 381 779 q 556 933 494 883 q 690 1032 617 982 q 580 1031 632 1032 q 477 1029 528 1031 q 374 1027 426 1028 q 264 1026 322 1026 q 228 1028 246 1026 q 192 1032 210 1029 l 175 1044 q 183 1054 178 1047 q 192 1063 189 1061 q 232 1066 196 1064 q 322 1069 268 1068 q 440 1072 376 1071 q 560 1073 503 1072 q 660 1074 617 1074 q 717 1075 703 1075 q 734 1075 722 1075 q 757 1073 746 1075 q 776 1066 768 1071 q 785 1053 785 1061 q 778 1038 785 1046 q 767 1026 772 1031 q 752 1015 760 1019 q 738 1007 744 1011 q 475 819 603 926 q 244 593 347 713 z "},"8":{"ha":494,"x_min":-58,"x_max":685,"o":"m 421 901 q 547 994 482 950 q 685 1078 613 1039 q 649 1047 674 1067 q 595 1003 625 1026 q 534 953 565 979 q 477 904 503 928 q 435 861 451 881 q 418 832 418 842 q 424 763 418 797 q 429 692 429 728 q 407 558 429 621 q 340 446 385 496 q 228 363 294 396 q 72 318 161 329 l 54 317 q -24 334 11 317 q -58 392 -58 351 q -34 460 -58 421 q 28 544 -10 500 q 113 633 65 588 q 207 721 161 679 q 294 797 253 763 q 360 853 335 831 q 381 888 381 872 q 382 926 382 903 q 382 970 382 944 q 389 1020 382 996 q 412 1061 396 1044 q 461 1078 428 1078 q 522 1044 504 1078 l 517 1032 l 500 1032 q 478 1044 489 1038 q 454 1050 467 1050 q 422 1029 432 1050 q 411 993 411 1008 l 411 903 l 421 901 m 379 825 q 319 774 357 807 q 236 701 281 742 q 146 617 192 661 q 63 530 100 572 q 3 451 26 488 q -21 392 -21 415 q 5 357 -21 367 q 56 347 31 347 q 75 350 64 347 q 216 393 156 360 q 317 475 276 426 q 377 584 357 524 q 397 707 397 644 q 394 765 397 736 q 388 822 392 794 l 379 825 z "},"9":{"ha":614,"x_min":-60,"x_max":704,"o":"m 664 1047 q 569 976 628 1018 q 447 893 511 933 q 319 824 382 853 q 210 796 256 796 q 171 810 188 796 q 154 847 154 824 q 176 906 154 875 q 231 965 197 936 q 308 1020 265 994 q 393 1065 350 1046 q 474 1097 436 1085 q 538 1108 513 1108 q 588 1088 575 1108 q 600 1032 600 1067 q 619 1047 607 1038 q 643 1065 631 1056 q 668 1080 656 1074 q 689 1086 681 1086 q 701 1078 699 1086 q 704 1063 704 1069 q 701 1051 704 1060 q 697 1040 699 1043 q 645 910 679 989 q 565 744 611 832 q 462 568 518 656 q 342 410 406 481 q 210 295 279 339 q 72 251 142 251 q -22 292 15 251 q -60 388 -60 332 q -60 404 -60 396 q -57 419 -60 413 q -36 378 -49 400 q -7 339 -24 357 q 30 310 10 321 q 74 299 50 299 q 192 341 131 299 q 314 451 254 383 q 430 601 374 518 q 533 765 486 683 q 614 917 579 846 q 665 1029 649 988 l 669 1043 l 664 1047 m 189 838 q 219 833 203 833 q 271 844 238 833 q 344 872 304 854 q 424 913 383 890 q 499 960 465 936 q 555 1008 533 985 q 576 1053 576 1032 q 570 1067 576 1061 q 555 1076 564 1074 q 535 1081 546 1079 q 518 1082 525 1082 q 466 1070 499 1082 q 397 1040 433 1058 q 324 996 361 1021 q 256 944 286 971 q 206 892 225 918 q 188 846 188 867 l 189 838 z "},"\u0000":{"ha":0,"x_min":0,"x_max":0,"o":""},"\r":{"ha":406,"x_min":0,"x_max":0,"o":""}," ":{"ha":406,"x_min":0,"x_max":0,"o":""},"¤":{"ha":781,"x_min":15,"x_max":701,"o":"m 624 626 q 642 601 633 615 q 650 571 650 586 q 640 540 650 554 q 613 513 629 525 q 581 490 597 500 q 551 472 564 481 q 601 419 575 444 q 649 364 628 393 l 646 346 l 629 344 q 601 369 619 351 q 563 404 583 386 q 524 436 542 422 q 496 450 506 450 q 449 445 475 450 q 396 434 424 440 q 339 423 368 428 q 282 418 310 418 q 238 422 258 418 q 196 426 217 426 q 155 411 175 426 q 115 376 135 396 q 76 336 96 356 q 39 307 57 317 l 18 306 l 15 329 q 67 386 35 358 q 124 439 99 414 q 93 466 108 454 q 78 501 78 478 q 92 540 78 525 q 121 569 106 556 q 101 592 113 582 q 78 611 90 601 q 56 631 67 621 q 39 654 46 640 l 53 663 q 102 630 78 651 q 149 592 126 608 q 302 633 228 614 q 460 651 376 651 q 514 647 488 651 q 568 643 540 643 q 608 658 589 643 q 642 692 626 674 q 669 726 657 711 q 693 742 682 742 q 701 736 699 742 l 699 710 q 662 667 681 688 q 624 626 643 647 m 607 576 q 506 611 564 611 q 457 609 492 611 q 380 601 422 607 q 292 588 338 596 q 208 568 246 579 q 146 541 171 557 q 121 506 121 525 q 147 482 126 490 q 192 469 167 474 q 242 463 217 464 q 279 461 267 461 q 360 467 311 461 q 460 486 410 472 q 551 522 510 500 q 607 576 592 543 z "},"?":{"ha":525,"x_min":24,"x_max":611,"o":"m 186 708 q 157 703 174 703 q 106 724 125 703 q 88 776 88 746 q 131 883 88 836 q 235 961 174 929 q 365 1010 297 993 q 481 1026 432 1026 q 522 1023 499 1026 q 565 1011 544 1019 q 598 988 585 1003 q 611 947 611 972 q 590 882 611 917 q 549 826 569 847 q 328 619 443 718 q 108 414 214 521 l 82 406 l 78 432 q 138 510 94 467 q 234 601 181 554 q 346 698 288 649 q 453 793 404 747 q 533 878 501 839 q 564 944 564 917 q 556 965 564 958 q 535 976 547 972 q 509 980 522 979 q 486 981 496 981 q 427 974 463 981 q 352 956 392 968 q 274 926 313 943 q 203 886 235 908 q 151 838 171 864 q 132 781 132 811 q 152 741 132 760 q 186 708 172 722 m 46 281 q 31 286 39 282 q 24 300 24 290 q 28 311 24 304 q 41 324 33 318 q 56 335 49 331 q 68 340 64 340 l 81 333 q 85 321 85 329 q 69 297 78 306 q 46 281 61 288 z "},"_":{"ha":758,"x_min":-65,"x_max":536,"o":"m 536 360 q 470 346 504 344 q 403 347 436 347 q 188 338 294 347 q -25 310 81 328 q -37 307 -32 308 q -49 306 -42 306 q -59 310 -53 306 q -65 319 -65 314 q -55 338 -65 336 q -32 343 -44 340 q 210 374 90 361 q 456 388 331 388 q 499 381 479 388 q 536 360 519 375 z "},"Z":{"ha":993,"x_min":-94,"x_max":924,"o":"m 99 767 q 94 783 94 775 q 129 822 94 803 q 218 859 164 842 q 337 892 272 876 q 462 919 401 908 q 569 937 522 931 q 636 943 617 943 q 676 941 654 943 q 716 931 697 939 q 747 910 735 924 q 760 872 760 896 q 731 799 760 842 q 655 707 703 757 q 544 603 607 657 q 415 494 482 549 q 278 387 347 439 q 150 291 210 335 q 43 214 90 247 q -28 163 -4 181 l -24 156 q 184 223 76 186 q 402 291 292 260 q 623 343 513 322 q 839 364 733 364 l 924 363 q 913 356 921 360 q 901 350 906 351 q 461 252 678 303 q 28 128 244 201 q -15 114 8 121 q -58 107 -39 107 q -84 115 -74 107 q -94 138 -94 122 q -60 181 -94 150 q 32 257 -25 213 q 162 355 89 301 q 311 467 235 408 q 460 583 388 525 q 590 694 533 642 q 682 792 647 747 q 717 867 717 836 q 706 887 717 879 q 681 897 696 894 q 652 901 667 900 q 628 901 638 901 q 491 888 558 901 q 358 855 424 875 q 228 811 293 835 q 99 767 164 788 z "},"Y":{"ha":932,"x_min":-96,"x_max":917,"o":"m 742 554 q 813 551 778 549 q 882 540 849 554 q 815 533 849 536 q 747 524 781 529 q 706 488 732 521 q 646 401 681 454 q 567 279 611 347 q 474 140 524 211 q 368 2 424 69 q 253 -118 313 -65 q 131 -203 193 -171 q 4 -235 68 -235 q -72 -198 -47 -235 q -96 -115 -96 -161 q -71 2 -96 -57 q -4 116 -46 61 q 91 221 38 171 q 201 315 144 271 q 315 392 258 358 q 417 450 371 426 q 540 503 479 482 q 668 542 601 525 q 685 548 679 544 q 699 561 692 551 q 778 698 742 624 q 849 842 815 772 q 776 781 817 817 q 691 708 736 746 q 597 634 646 671 q 498 568 547 597 q 401 521 449 539 q 311 503 354 503 q 242 531 265 503 q 218 603 218 558 q 230 663 218 625 q 260 743 242 700 q 301 831 278 786 q 348 911 325 875 q 392 970 371 947 q 429 993 414 993 l 447 992 q 386 904 419 951 q 324 806 353 857 q 274 703 294 756 q 254 600 254 650 q 310 542 254 542 q 426 569 365 542 q 549 640 488 597 q 667 731 610 682 q 772 822 724 779 q 853 892 819 864 q 903 919 888 919 l 908 919 q 917 900 917 908 q 906 866 917 892 q 877 806 894 840 q 839 733 860 772 q 799 659 818 694 q 764 595 779 624 q 742 554 749 567 m 658 500 q 528 463 603 493 q 375 385 454 432 q 219 279 296 339 q 81 154 142 219 q -17 21 21 89 q -54 -111 -54 -47 q -41 -169 -54 -142 q 8 -197 -28 -197 q 126 -158 64 -197 q 252 -58 189 -119 q 376 79 315 3 q 491 232 438 156 q 586 375 544 308 q 653 485 628 442 q 656 492 656 488 q 658 500 657 497 z "},"X":{"ha":786,"x_min":-86,"x_max":1142,"o":"m 515 749 q 589 808 543 771 q 690 887 635 844 q 806 972 746 929 q 924 1050 867 1015 q 1030 1106 981 1085 q 1113 1128 1079 1128 l 1125 1128 l 1142 1110 l 1126 1082 l 1103 1078 q 1093 1089 1100 1089 q 1023 1063 1074 1089 q 908 997 972 1038 q 774 908 844 957 q 647 814 704 860 q 551 731 589 768 q 514 676 514 693 q 515 562 514 628 q 518 427 515 496 q 528 294 521 358 q 549 185 536 231 q 583 128 561 143 q 643 104 604 114 q 593 83 619 83 q 536 119 558 83 q 501 210 514 154 q 482 333 488 265 q 474 463 476 400 q 473 578 472 526 q 474 656 474 631 l 456 649 q 181 389 308 521 q -65 104 54 257 l -83 103 l -86 119 q -39 201 -75 153 q 47 303 -3 249 q 153 414 96 357 q 266 522 211 471 q 367 615 321 574 q 442 682 414 657 q 469 743 461 699 q 481 840 478 788 q 485 941 485 892 q 489 1019 486 990 q 492 1039 490 1026 q 506 1049 494 1051 l 521 1029 q 524 1010 524 1019 q 524 992 524 1001 q 519 870 524 931 q 515 749 514 810 z "},"W":{"ha":1264,"x_min":-18,"x_max":1246,"o":"m 1244 903 l 1246 871 q 1218 752 1246 817 q 1144 622 1190 688 q 1038 497 1097 557 q 914 389 978 436 q 787 313 850 342 q 671 285 724 285 q 591 317 613 285 q 569 403 569 349 q 581 480 569 440 q 608 553 593 519 q 634 613 622 588 q 646 649 646 638 l 646 661 q 576 593 621 638 q 474 496 531 549 q 354 388 417 443 q 232 288 292 333 q 122 215 172 243 q 40 186 72 186 q -4 206 10 186 q -18 254 -18 226 q 3 344 -18 290 q 59 461 24 399 q 142 592 94 524 q 243 727 190 661 q 353 853 296 793 q 463 960 410 914 q 563 1034 515 1006 q 646 1065 610 1063 l 660 1056 l 651 1039 q 553 990 596 1014 q 467 922 511 967 q 387 840 433 889 q 291 731 340 790 q 193 607 242 672 q 106 477 144 542 q 43 352 67 413 q 19 243 19 292 q 23 231 19 239 q 33 224 26 224 q 133 263 71 224 q 266 362 194 303 q 412 490 338 421 q 549 619 486 560 q 654 717 611 678 q 707 757 697 757 q 729 738 729 757 q 711 683 729 721 q 672 595 693 644 q 632 492 650 546 q 614 389 614 438 q 623 348 614 364 q 660 332 632 332 q 715 340 686 332 q 765 361 743 349 q 924 463 856 411 q 1048 578 993 515 q 1146 715 1103 640 q 1228 885 1189 790 l 1236 901 l 1244 903 z "},"V":{"ha":797,"x_min":-7,"x_max":1165,"o":"m -7 363 q 7 485 -7 417 q 42 622 21 553 q 88 758 63 692 q 135 874 113 824 q 142 891 138 878 q 153 904 147 904 q 169 902 161 904 q 176 889 176 900 q 172 875 176 886 q 167 860 168 864 q 120 729 143 794 q 80 597 97 664 q 51 463 63 531 q 40 325 40 394 q 56 267 40 296 q 106 238 72 238 q 212 276 149 238 q 348 374 275 314 q 496 507 421 433 q 638 651 571 581 q 758 780 706 721 q 838 871 811 839 q 873 913 849 883 q 928 978 897 942 q 992 1053 958 1014 q 1055 1126 1025 1093 q 1108 1183 1085 1160 q 1139 1213 1131 1207 l 1163 1213 l 1165 1188 q 1159 1177 1163 1182 q 1153 1168 1156 1172 q 1075 1074 1125 1133 q 961 939 1025 1014 q 822 780 897 864 q 667 613 746 696 q 508 455 588 531 q 354 321 428 379 q 217 228 281 263 q 106 194 153 194 q 49 210 71 194 q 15 251 28 226 q -2 305 3 275 q -7 363 -7 335 z "},"U":{"ha":949,"x_min":-12,"x_max":1169,"o":"m 628 232 q 642 220 635 226 q 649 204 649 214 q 638 185 647 193 q 618 174 628 178 q 592 189 600 175 q 583 218 583 203 q 603 314 583 261 q 655 422 624 367 q 723 533 686 478 q 792 636 760 588 q 849 722 825 685 q 878 782 872 760 q 782 694 842 749 q 649 578 722 640 q 497 453 576 517 q 340 339 417 390 q 194 256 263 288 q 76 224 125 224 q 6 253 24 224 q -12 331 -12 283 q 3 420 -12 368 q 45 530 19 472 q 104 648 71 588 q 173 762 138 708 q 242 858 208 815 q 304 924 276 900 l 328 924 l 324 900 q 271 831 301 874 q 208 737 240 789 q 144 628 175 685 q 87 516 113 571 q 46 413 61 461 q 31 329 31 364 q 40 286 31 306 q 78 267 50 267 q 197 302 126 267 q 351 397 268 338 q 525 530 435 456 q 703 683 615 604 q 870 836 790 761 q 1010 969 950 911 q 1108 1064 1071 1028 q 1150 1100 1146 1100 l 1163 1094 q 1169 1079 1169 1088 q 1165 1068 1169 1076 q 1158 1057 1161 1060 q 1006 862 1081 958 q 863 664 932 765 q 735 456 794 563 q 628 232 675 349 z "},"T":{"ha":583,"x_min":-15,"x_max":1260,"o":"m 988 1050 q 735 1033 860 1050 q 487 987 610 1015 q 242 921 364 958 q 1 843 121 883 l -15 846 l -12 863 q 106 926 28 896 q 285 982 185 956 q 496 1028 385 1008 q 712 1064 607 1049 q 906 1087 817 1079 q 1051 1094 996 1094 q 1093 1094 1065 1094 q 1151 1092 1121 1093 q 1206 1087 1181 1090 q 1243 1078 1232 1083 l 1260 1057 q 1238 1034 1253 1038 q 1207 1031 1224 1031 q 1099 1040 1153 1031 q 988 1050 1044 1050 m 128 128 l 115 151 q 143 232 117 175 q 210 364 169 289 q 300 523 251 439 q 395 684 349 607 q 478 822 442 761 q 533 914 515 883 q 542 929 538 921 q 556 938 546 938 q 569 931 563 938 q 576 918 576 925 q 573 907 576 914 q 567 896 569 900 q 390 594 483 743 q 218 289 297 444 q 187 217 200 253 q 153 144 174 181 l 128 128 z "},"S":{"ha":951,"x_min":-26,"x_max":854,"o":"m 200 101 q 110 102 151 100 q 38 113 68 104 q -10 138 7 121 q -26 182 -26 154 q 5 242 -26 208 q 78 307 36 276 q 164 358 121 338 q 232 379 207 379 q 247 376 236 379 l 264 354 q 221 324 258 343 q 140 283 183 306 q 63 234 97 260 q 28 182 28 208 q 40 164 28 171 q 69 153 53 157 q 103 147 86 149 q 128 144 119 144 q 228 158 167 144 q 358 197 289 172 q 497 256 426 222 q 623 331 567 290 q 715 417 679 372 q 750 508 750 461 q 711 577 750 550 q 615 623 672 604 q 489 656 557 642 q 363 688 421 671 q 267 726 306 704 q 228 785 228 749 q 255 845 228 817 q 325 898 282 874 q 421 942 368 922 q 525 974 474 961 q 621 994 576 988 q 692 1001 665 1001 q 742 996 714 1001 q 796 978 771 990 q 838 945 821 965 q 854 896 854 925 q 841 848 854 872 q 800 824 828 824 q 790 826 797 824 q 781 831 783 829 l 778 854 q 798 888 785 871 q 811 924 811 904 q 798 945 811 936 q 767 960 785 954 q 730 968 749 965 q 701 971 711 971 q 641 965 682 971 q 551 946 600 958 q 451 917 503 933 q 358 880 400 900 q 290 835 317 860 q 263 786 263 811 q 302 743 263 760 q 401 713 342 726 q 530 685 461 700 q 658 648 599 671 q 758 590 718 625 q 797 500 797 554 q 767 403 797 450 q 689 316 738 357 q 578 240 640 275 q 449 178 515 206 q 317 131 382 151 q 200 101 253 111 z "},"R":{"ha":1157,"x_min":-29,"x_max":1222,"o":"m 451 457 q 570 348 506 403 q 706 249 635 293 q 856 176 778 204 q 1014 149 933 149 q 1110 158 1064 149 q 1204 176 1156 168 l 1222 165 l 1217 142 q 1181 123 1206 131 q 1126 110 1156 115 q 1069 101 1097 104 q 1026 99 1042 99 q 857 127 940 99 q 696 201 774 156 q 549 304 618 247 q 422 418 479 361 q 392 372 413 403 q 347 303 372 342 q 293 224 321 265 q 240 147 265 183 q 196 85 215 111 q 168 51 176 58 l 143 49 l 136 71 q 156 110 139 83 q 199 170 174 136 q 253 243 224 204 q 311 319 283 282 q 361 390 339 357 q 393 446 383 424 q 374 458 386 451 q 352 472 363 464 q 334 488 342 479 q 326 504 326 496 q 338 522 326 517 q 358 528 349 526 q 412 537 389 531 q 453 555 435 543 q 486 585 471 567 q 517 631 501 603 q 609 783 561 708 q 706 931 657 857 l 725 935 l 733 915 q 717 885 731 908 q 683 828 703 861 q 638 756 663 794 q 592 683 614 718 q 551 619 569 647 q 526 581 533 592 q 603 604 553 583 q 713 656 653 625 q 835 726 772 688 q 951 806 899 765 q 1035 884 1003 846 q 1068 953 1068 922 q 1044 992 1068 978 q 990 1013 1021 1006 q 926 1021 958 1019 q 878 1022 894 1022 q 690 1004 797 1022 q 471 958 582 986 q 258 896 360 931 q 86 826 156 861 q 69 818 83 825 q 40 803 56 811 q 10 788 24 794 q -6 782 -4 782 l -29 783 q 16 834 -22 808 q 113 884 54 860 q 247 931 172 908 q 401 974 321 954 q 559 1011 481 994 q 706 1040 638 1028 q 825 1059 774 1053 q 900 1065 876 1065 q 967 1062 929 1065 q 1040 1047 1006 1058 q 1098 1013 1074 1036 q 1122 953 1122 990 q 1087 859 1122 906 q 996 769 1051 813 q 872 685 940 725 q 735 613 803 646 q 608 556 667 581 q 513 518 549 532 q 474 495 490 510 q 451 457 458 481 z "},"Q":{"ha":904,"x_min":-71,"x_max":813,"o":"m 428 219 q 513 212 471 214 q 597 205 556 210 q 680 190 639 200 q 760 158 721 181 q 733 153 746 154 q 706 151 719 151 q 567 160 636 151 q 428 168 499 168 q 186 156 306 168 q -56 131 67 143 l -69 139 q -71 144 -71 140 q -53 164 -71 156 q -13 178 -36 172 q 32 188 10 185 q 64 193 54 192 l 60 204 q 14 326 14 254 q 33 431 14 376 q 82 540 51 486 q 152 648 113 594 q 234 749 192 701 q 319 838 276 797 q 396 911 361 879 q 381 913 389 913 q 367 914 374 914 q 326 910 346 914 q 285 906 306 906 l 268 906 q 350 938 307 926 q 435 963 393 949 q 501 996 469 974 q 563 1042 532 1018 q 626 1085 594 1065 q 694 1114 658 1106 l 717 1103 l 703 1083 q 608 1030 657 1056 q 518 968 558 1004 q 624 944 571 958 q 718 903 676 929 q 786 833 760 876 q 813 724 813 790 q 776 566 813 640 q 684 428 740 492 q 560 311 628 364 q 428 219 492 258 m 203 200 q 251 207 226 204 q 299 217 275 210 q 401 260 347 232 q 506 325 454 288 q 604 409 557 363 q 687 507 651 456 q 743 613 722 558 q 764 724 764 668 q 738 817 764 779 q 669 878 711 856 q 578 911 628 901 q 482 921 528 921 q 432 897 456 921 q 358 822 399 864 q 274 734 317 781 q 192 637 232 688 q 122 534 153 586 q 73 429 92 482 q 54 326 54 376 q 65 265 54 289 q 97 227 76 240 q 144 208 117 214 q 203 203 171 203 l 203 200 z "},"P":{"ha":996,"x_min":-21,"x_max":983,"o":"m 563 1015 q 429 992 501 1007 q 288 953 357 978 q 160 890 219 928 q 64 799 101 853 q 98 778 76 783 q 144 771 119 772 q 192 772 168 769 q 233 775 215 774 l 236 767 q 191 742 217 749 q 139 735 165 735 q 106 738 125 735 q 70 747 88 740 q 41 766 53 754 q 29 796 29 778 q 61 867 29 835 q 143 926 93 900 q 255 974 193 953 q 376 1011 317 996 q 485 1037 435 1026 q 565 1053 536 1047 q 590 1061 581 1056 q 606 1074 599 1067 q 619 1089 613 1081 q 638 1107 626 1097 l 643 1065 q 753 1051 693 1060 q 864 1021 813 1043 q 949 959 915 999 q 983 851 983 919 q 956 728 983 790 q 881 608 928 665 q 773 501 833 550 q 647 415 713 451 q 515 357 581 378 q 394 336 450 336 q 356 339 382 336 q 302 348 329 342 q 255 366 275 354 q 235 396 235 378 l 254 421 q 290 387 269 397 q 339 376 311 376 q 460 395 394 376 q 593 447 526 414 q 722 524 660 479 q 833 623 785 569 q 910 737 881 676 q 939 860 939 797 q 912 940 939 908 q 844 990 885 971 q 756 1016 803 1008 q 672 1024 710 1024 q 626 1022 647 1024 q 589 999 606 1021 q 491 858 549 944 q 370 674 433 772 q 243 478 307 576 q 126 300 179 379 q 37 171 74 221 q -8 121 0 121 q -17 126 -15 121 l -21 150 q 8 206 -17 165 q 69 303 32 246 q 152 428 106 360 q 249 568 199 496 q 348 710 299 640 q 440 841 397 781 q 515 947 482 901 q 563 1015 547 993 z "},"z":{"ha":353,"x_min":-353,"x_max":268,"o":"m 217 617 q 167 593 201 611 q 99 556 133 575 q 37 521 64 536 q 8 506 10 506 q -10 521 -10 506 q 22 560 -10 538 q 96 603 54 583 q 177 638 138 624 q 233 653 217 653 q 254 645 244 653 q 264 626 264 638 q 249 585 264 608 q 215 539 235 563 q 174 495 194 515 q 142 463 154 475 q 188 446 165 454 q 228 425 211 438 q 257 393 246 413 q 268 343 268 374 q 242 235 268 294 q 174 113 217 175 q 76 -10 131 50 q -39 -116 21 -69 q -157 -191 -99 -162 q -265 -219 -215 -219 q -327 -202 -301 -219 q -353 -146 -353 -185 q -347 -109 -353 -126 q -336 -74 -342 -92 l -326 -74 q -325 -107 -326 -89 q -318 -140 -324 -125 q -301 -165 -312 -156 q -268 -175 -289 -175 q -172 -148 -225 -175 q -62 -76 -118 -121 q 45 26 -7 -31 q 138 140 97 82 q 204 252 179 197 q 229 347 229 307 q 210 396 229 382 q 166 417 190 410 q 122 430 142 424 q 103 456 103 436 q 119 486 103 465 q 155 531 135 507 q 195 575 175 554 q 224 606 215 596 l 217 617 z "},"y":{"ha":485,"x_min":-236,"x_max":497,"o":"m 497 519 q 460 483 485 504 q 406 441 435 463 q 348 400 376 419 q 301 369 319 381 q 285 358 293 364 q 269 346 278 353 q 189 251 231 303 q 105 147 147 199 q 20 45 63 94 q -62 -42 -22 -4 q -137 -102 -101 -79 q -204 -125 -174 -125 q -226 -118 -215 -125 q -236 -97 -236 -111 q -201 -2 -236 -53 q -115 101 -167 49 q 1 206 -62 154 q 120 304 64 258 q 219 387 176 350 q 275 447 263 424 q 335 555 304 501 q 382 668 367 608 l 375 675 q 299 633 350 664 q 193 569 249 601 q 90 513 138 538 q 26 488 43 488 q 3 498 13 488 q -6 522 -6 508 q 6 552 -6 533 q 31 590 17 571 q 60 627 46 610 q 83 654 75 644 l 110 656 q 65 594 90 622 q 29 528 39 565 q 39 525 32 525 q 74 538 49 525 q 133 571 100 551 q 202 614 165 590 q 273 657 239 638 q 334 690 307 676 q 375 703 361 703 q 402 690 392 703 q 413 661 413 676 q 404 625 413 649 q 382 569 396 601 q 350 498 368 538 q 311 415 332 458 q 402 471 357 443 q 492 526 447 499 l 497 519 m 171 300 q 74 227 131 274 q -37 126 18 181 q -137 17 -92 72 q -199 -83 -182 -39 q -140 -50 -174 -75 q -70 10 -107 -25 q 5 85 -33 44 q 76 166 43 126 q 133 241 108 206 q 171 300 158 276 z "},"x":{"ha":324,"x_min":-164,"x_max":494,"o":"m 90 594 q 65 642 78 618 q 39 690 53 667 l 43 707 l 60 704 q 90 660 78 686 q 115 613 103 635 q 162 646 133 625 q 224 691 190 667 q 295 740 258 715 q 366 787 332 765 q 429 824 400 808 q 476 843 458 839 l 494 833 l 489 814 q 441 790 465 799 q 393 765 417 781 q 261 675 326 721 q 129 583 196 629 q 171 466 149 525 q 193 343 193 407 l 192 315 q 168 376 178 344 q 149 438 158 407 q 128 499 139 469 q 101 558 117 529 q 74 536 94 553 q 26 497 53 519 q -30 451 0 475 q -85 406 -60 426 q -128 373 -111 386 q -147 360 -146 360 l -164 365 q -44 487 -112 433 q 90 594 24 540 z "},"w":{"ha":468,"x_min":-11,"x_max":483,"o":"m 153 575 q 124 550 142 567 q 85 517 106 533 q 46 488 65 500 q 14 476 26 476 q 5 478 10 476 q -3 481 0 479 q -10 496 -10 486 q -11 513 -10 506 q 2 544 -10 521 q 28 592 14 567 q 56 640 43 618 q 75 667 69 663 l 100 668 l 103 647 q 73 592 92 619 q 39 539 54 564 l 44 532 q 72 555 51 538 q 116 591 93 572 q 158 625 139 610 q 181 640 176 640 q 197 633 190 640 q 204 617 204 626 q 190 553 204 585 q 175 488 175 522 q 194 482 182 482 q 226 494 204 482 q 277 527 249 507 q 337 571 306 547 q 397 617 368 594 q 449 657 426 639 q 483 682 472 675 q 430 618 467 658 q 349 540 393 578 q 259 474 304 501 q 183 446 214 446 q 152 460 163 446 q 142 493 142 474 q 146 535 142 514 q 153 575 150 556 z "},"v":{"ha":338,"x_min":-8,"x_max":410,"o":"m 410 738 q 340 660 386 708 q 240 566 293 613 q 133 486 186 519 q 42 453 79 453 q 5 468 18 453 q -8 506 -8 483 q 11 576 -8 539 q 50 639 31 613 l 72 647 l 72 624 q 42 565 61 596 q 24 506 24 533 q 44 486 24 486 q 88 502 60 486 q 149 543 115 518 q 221 599 183 568 q 294 658 258 629 q 358 709 329 686 q 406 743 388 732 l 410 738 z "},"r":{"ha":371,"x_min":-71,"x_max":396,"o":"m 154 694 q 110 633 132 663 q 65 571 88 603 l 69 567 q 130 609 92 582 q 210 663 168 636 q 290 710 251 690 q 353 729 329 729 q 374 722 365 729 q 387 703 382 714 q 394 680 392 692 q 396 658 396 668 q 381 639 396 639 q 352 656 358 639 q 340 688 346 672 q 247 655 301 686 q 140 581 193 624 q 40 492 86 538 q -29 417 -6 446 q -38 405 -32 413 q -50 397 -44 397 q -64 401 -57 397 q -71 414 -71 406 q -58 447 -71 422 q -24 502 -44 471 q 21 567 -4 533 q 69 630 46 601 q 110 676 92 658 q 136 694 128 694 l 154 694 z "},"q":{"ha":456,"x_min":-67,"x_max":418,"o":"m -36 -40 q -58 -8 -50 -25 q -67 29 -67 10 q -44 117 -67 68 q 13 220 -22 167 q 93 329 49 274 q 180 437 138 385 q 260 534 222 489 q 319 613 297 579 q 254 572 294 597 q 169 522 214 546 q 81 481 124 499 q 13 464 39 464 q -8 473 0 464 q -15 493 -15 482 q 11 549 -15 518 q 74 605 38 579 q 148 649 110 631 q 210 667 186 667 q 247 653 233 667 q 268 618 261 639 q 294 635 275 622 q 335 660 314 647 q 374 684 356 674 q 399 694 393 694 l 413 688 q 418 675 418 679 q 385 624 418 664 q 301 526 351 585 q 191 396 250 468 q 81 247 132 324 q -3 97 31 171 q -36 -40 -36 22 m 242 604 q 225 624 235 615 q 201 633 215 633 q 153 619 181 633 q 99 585 125 606 q 51 541 72 564 q 21 500 29 518 q 73 512 42 500 q 136 540 104 524 q 197 574 168 556 q 242 604 225 592 z "},"c":{"ha":414,"x_min":-12,"x_max":425,"o":"m 425 522 q 248 455 336 474 q 57 454 160 436 q 33 460 46 456 q 10 473 21 465 q -6 492 0 481 q -10 522 -12 504 q 33 597 -4 564 q 120 653 71 631 q 219 685 169 675 q 299 690 269 696 q 317 683 307 688 q 336 674 326 679 l 342 649 q 299 648 321 642 q 256 653 278 654 q 149 627 201 650 q 51 563 96 604 q 35 546 44 556 q 25 522 26 536 l 24 514 q 35 500 28 504 q 50 494 43 496 q 238 493 142 479 q 421 532 333 507 l 425 522 z "},"d":{"ha":425,"x_min":-22,"x_max":660,"o":"m 293 636 q 234 583 269 617 q 159 518 199 550 q 81 463 119 486 q 13 440 42 440 q -12 448 -1 440 q -22 471 -22 456 q 0 531 -22 503 q 56 581 22 558 q 131 622 90 604 q 207 655 171 640 q 270 680 243 669 q 304 697 297 690 q 469 891 394 785 q 614 1101 543 997 q 625 1118 618 1108 q 640 1128 632 1128 q 653 1124 647 1128 q 660 1111 660 1119 q 637 1067 651 1088 q 607 1026 622 1046 q 210 385 383 721 q 168 300 188 342 q 122 217 149 258 l 103 210 l 97 233 q 193 434 135 336 q 301 629 251 532 l 293 636 m 21 482 q 69 503 42 488 q 124 537 97 518 q 174 576 151 556 q 207 617 196 597 q 106 562 154 593 q 21 482 57 531 z "},"e":{"ha":369,"x_min":-12,"x_max":381,"o":"m 381 526 q 318 485 357 503 q 235 456 279 467 q 146 441 190 444 q 66 444 101 438 q 9 467 31 450 q -10 515 -12 485 q 22 574 -8 544 q 92 627 51 604 q 176 664 132 650 q 249 676 219 678 q 276 668 264 676 q 288 644 289 660 q 257 608 286 625 q 190 577 228 590 q 115 556 153 564 q 58 546 76 547 q 39 536 44 544 q 35 503 24 517 q 64 485 46 489 q 120 479 86 479 q 196 485 154 479 q 284 501 238 490 q 376 531 331 513 l 381 526 m 236 628 q 169 624 206 640 q 111 583 133 608 l 236 628 z "},"f":{"ha":349,"x_min":-258,"x_max":396,"o":"m 394 1000 l 396 989 q 324 877 364 935 q 240 761 283 819 q 155 644 197 703 q 76 528 113 585 q 230 528 164 529 q 357 532 296 528 l 371 522 l 365 507 q 297 505 335 506 q 221 503 258 504 q 149 503 183 503 q 89 503 114 503 q 58 494 71 503 q 34 474 44 486 q 16 446 24 461 q 0 417 8 431 q 36 351 19 381 q 53 278 53 321 q 41 215 53 250 q 8 144 29 181 q -40 72 -12 107 q -97 10 -67 38 q -158 -33 -126 -17 q -218 -50 -189 -50 q -252 -35 -246 -50 q -258 4 -258 -19 q -247 56 -258 25 q -217 124 -236 88 q -176 201 -199 161 q -132 276 -154 240 q -91 344 -110 313 q -60 394 -72 375 q -51 413 -53 406 q -51 428 -50 421 q -53 444 -51 436 q -56 463 -56 451 q -42 494 -56 481 q -11 518 -29 507 q 26 542 7 529 q 58 571 46 554 q 183 740 121 656 q 307 908 244 824 q 322 930 311 914 q 344 961 332 946 q 368 989 357 976 q 386 1001 379 1001 l 394 1000 m -222 -17 q -139 32 -181 1 q -63 102 -97 63 q -8 188 -29 142 q 13 283 13 235 q 1 333 13 310 q -25 378 -10 357 q -57 330 -37 360 q -98 264 -76 300 q -142 188 -119 228 q -182 110 -164 147 q -211 43 -200 74 q -222 -7 -222 13 l -222 -17 z "},"!":{"ha":338,"x_min":19,"x_max":460,"o":"m 82 421 q 106 481 82 433 q 165 593 129 528 q 242 731 200 658 q 324 867 285 804 q 392 974 363 931 q 432 1024 422 1018 q 446 1028 439 1028 q 460 1029 453 1029 l 460 1001 q 349 834 401 917 q 246 663 297 751 q 174 529 208 597 q 97 400 140 461 l 82 421 m 99 342 q 92 324 99 333 q 77 309 86 315 q 58 299 68 303 q 40 294 49 294 q 26 301 32 294 q 19 315 19 307 l 25 328 q 36 338 29 332 q 51 348 43 343 q 68 357 60 353 q 82 361 76 361 q 94 355 89 361 q 99 342 99 349 z "},"\"":{"ha":301,"x_min":86,"x_max":269,"o":"m 86 953 q 124 1016 106 985 q 163 1078 143 1047 l 182 1090 l 190 1068 q 156 997 179 1029 q 93 947 132 964 l 86 953 m 165 953 q 203 1016 185 985 q 242 1078 222 1047 l 261 1090 l 269 1068 q 235 997 258 1029 q 172 947 211 964 l 165 953 z "},"$":{"ha":631,"x_min":-37,"x_max":692,"o":"m 579 1060 q 608 1054 589 1057 q 646 1045 628 1051 q 678 1029 664 1039 q 692 1006 692 1019 q 685 994 692 1001 q 676 985 679 988 q 642 1023 665 1008 q 593 1038 619 1038 q 574 1035 585 1038 l 557 1022 q 502 920 529 971 q 447 818 475 869 q 480 783 463 801 q 513 744 497 765 q 538 701 528 724 q 547 656 547 679 q 524 577 547 613 q 464 511 500 542 q 385 456 428 481 q 302 408 342 431 q 233 367 263 386 q 194 332 203 349 q 168 281 188 321 q 126 199 149 242 q 83 122 103 156 q 56 89 63 89 q 46 93 50 89 l 42 121 q 98 233 68 178 q 156 344 128 288 q 106 337 129 340 q 57 333 83 333 q 26 335 43 333 q -4 342 10 336 q -28 359 -18 349 q -37 389 -37 369 q -19 440 -37 413 q 26 490 -1 467 q 82 527 53 513 q 135 542 111 542 l 142 542 q 68 465 106 503 q 1 383 31 428 q 22 378 13 381 q 43 375 32 375 q 106 381 72 375 q 167 394 139 388 q 192 424 174 396 q 235 495 211 453 q 285 588 258 538 q 336 684 313 638 q 378 766 360 731 q 403 815 396 801 l 408 824 q 380 847 394 835 q 353 874 365 860 q 332 905 340 889 q 324 940 324 921 q 339 990 324 971 q 377 1019 354 1008 q 428 1037 400 1031 q 483 1051 457 1043 q 531 1069 510 1058 q 561 1101 551 1081 q 572 1124 564 1108 q 590 1154 581 1139 q 609 1181 599 1169 q 626 1193 619 1193 q 640 1188 633 1192 q 646 1176 646 1183 q 615 1117 635 1147 q 579 1060 594 1088 m 246 429 q 320 456 275 432 q 407 514 365 481 q 479 585 449 547 q 510 656 510 624 q 485 731 510 697 q 433 792 461 764 l 246 429 m 418 842 q 470 936 444 889 q 519 1032 496 983 q 474 1024 503 1029 q 418 1007 446 1018 q 370 979 390 996 q 350 940 350 963 q 358 914 350 928 q 376 888 365 900 q 398 863 386 875 q 418 842 410 851 z "},"%":{"ha":794,"x_min":40,"x_max":746,"o":"m 746 1060 q 740 1051 743 1056 q 732 1043 736 1047 q 694 1013 715 1026 q 654 982 672 999 q 575 903 613 944 q 500 818 538 861 q 284 565 390 692 q 85 299 178 438 q 76 285 83 296 q 64 275 69 275 q 49 278 57 275 q 40 293 40 282 q 79 361 49 315 q 155 467 110 407 q 256 596 200 526 q 370 734 311 665 q 487 867 429 803 q 594 979 544 931 q 680 1057 643 1028 q 733 1086 717 1086 q 744 1074 742 1086 q 746 1060 746 1063 m 608 613 q 635 585 617 593 q 671 569 653 578 q 703 547 689 561 q 717 500 717 532 q 703 444 717 471 q 669 398 690 418 q 620 365 647 378 q 565 353 593 353 q 511 375 532 353 q 490 431 490 397 q 500 486 490 460 q 526 535 510 513 q 565 578 543 558 q 608 613 586 597 m 576 390 q 612 400 594 390 q 644 426 629 410 q 667 460 658 442 q 676 496 676 479 q 668 521 676 511 q 647 536 660 531 q 619 544 633 542 q 592 546 604 546 q 566 531 578 546 q 546 497 554 517 q 533 456 538 476 q 528 425 528 436 q 544 398 528 406 q 576 390 560 390 m 192 835 q 140 853 160 835 q 121 903 121 871 q 132 951 121 925 q 161 998 143 976 q 203 1034 179 1019 q 250 1049 226 1049 q 304 1026 286 1049 q 322 969 322 1003 q 312 920 322 944 q 283 877 301 896 q 242 847 265 858 q 192 835 218 835 m 249 1017 q 191 969 219 1000 q 163 901 163 939 q 173 881 163 889 q 194 874 183 874 q 225 883 210 874 q 252 906 240 892 q 272 938 264 921 q 279 969 279 954 q 269 996 279 985 q 249 1017 260 1007 z "},"&":{"ha":803,"x_min":-17,"x_max":742,"o":"m 414 458 q 375 438 403 453 q 310 406 347 424 q 232 367 274 388 q 151 331 190 347 q 80 303 113 314 q 29 293 47 293 q -3 306 10 293 q -17 339 -17 319 q -1 395 -17 363 q 38 465 14 428 q 93 540 63 503 q 154 611 124 578 q 213 669 185 644 q 260 707 240 694 q 249 787 256 747 q 243 867 243 826 q 273 990 243 933 q 352 1085 303 1046 q 463 1147 401 1125 q 588 1169 525 1169 q 624 1167 604 1169 q 660 1158 643 1165 q 688 1138 676 1151 q 700 1103 700 1125 q 677 1047 700 1081 q 618 975 654 1014 q 538 895 582 936 q 451 817 493 854 q 372 751 408 781 q 317 706 336 722 q 367 606 338 653 q 431 514 397 558 q 563 570 496 546 q 704 594 631 594 l 742 593 q 598 542 668 571 q 458 481 528 514 q 515 420 485 446 q 574 364 546 394 l 576 343 l 554 332 q 518 353 538 338 q 479 387 499 368 q 442 425 460 406 q 414 458 425 444 m 301 753 q 347 790 315 764 q 419 850 379 817 q 501 922 458 883 q 578 994 543 960 q 635 1056 613 1028 q 657 1099 657 1085 q 649 1115 657 1108 q 629 1125 640 1122 q 606 1129 618 1128 q 586 1131 594 1131 q 475 1110 529 1131 q 379 1055 421 1090 q 313 969 338 1019 q 288 858 288 918 q 291 806 288 832 q 301 753 294 779 m 279 667 q 210 606 250 647 q 131 518 169 565 q 63 423 93 471 q 24 340 33 375 l 29 340 q 105 358 54 340 q 210 401 156 376 q 312 452 264 426 q 382 494 360 478 l 279 667 z "},"'":{"ha":201,"x_min":86,"x_max":190,"o":"m 86 953 q 124 1016 106 985 q 163 1078 143 1047 l 182 1090 l 190 1068 q 156 997 179 1029 q 93 947 132 964 l 86 953 z "},"(":{"ha":288,"x_min":35,"x_max":529,"o":"m 529 1229 q 523 1220 526 1225 q 515 1213 519 1215 q 467 1173 492 1192 q 418 1132 442 1154 q 256 935 324 1044 q 142 706 189 826 q 102 577 118 643 q 86 444 86 511 q 97 349 86 390 q 126 272 107 307 q 172 203 144 236 q 232 131 199 169 q 138 178 175 147 q 77 250 100 208 q 44 342 54 292 q 35 446 35 392 q 67 650 35 544 q 154 855 100 756 q 279 1040 208 954 q 426 1186 350 1126 q 443 1199 432 1190 q 467 1217 454 1208 q 492 1232 481 1225 q 510 1239 504 1239 q 521 1235 515 1239 q 529 1229 526 1232 z "},")":{"ha":410,"x_min":-139,"x_max":358,"o":"m -139 138 q 47 274 -37 207 q 190 419 131 340 q 283 596 250 497 q 315 829 315 694 q 309 940 315 890 q 288 1033 303 989 q 251 1121 274 1078 q 196 1214 228 1164 l 200 1231 l 214 1233 q 281 1157 253 1211 q 326 1038 308 1103 q 351 910 343 974 q 358 804 358 846 q 342 663 358 738 q 294 517 325 589 q 220 379 264 444 q 121 262 176 314 q 0 176 65 210 q -139 138 -65 143 z "},"*":{"ha":465,"x_min":72,"x_max":551,"o":"m 279 840 q 176 799 225 825 q 72 757 126 772 l 72 768 q 88 787 72 775 q 128 812 104 799 q 182 840 153 825 q 238 867 211 854 q 287 890 265 881 q 318 903 308 899 q 285 972 307 940 q 244 1036 264 1003 q 276 1025 261 1036 q 302 998 290 1014 q 324 965 314 982 q 342 935 333 947 q 361 959 354 946 q 374 987 368 972 q 388 1015 381 1001 q 407 1040 396 1029 q 421 1015 421 1031 q 417 998 421 1010 q 406 974 413 986 q 394 949 400 961 q 386 932 389 938 q 464 955 425 944 q 543 965 503 965 l 551 965 q 460 921 508 938 q 367 883 413 904 q 379 839 371 860 q 388 794 388 818 q 383 764 388 778 l 338 857 q 268 765 304 810 q 185 686 232 721 l 178 692 q 229 765 204 728 q 279 840 254 803 z "},"+":{"ha":542,"x_min":49,"x_max":421,"o":"m 254 596 q 294 594 268 594 q 346 591 319 594 q 393 581 372 588 q 421 560 414 574 q 403 547 414 550 q 381 543 392 543 q 307 547 344 543 q 232 551 269 550 q 213 509 226 540 q 182 445 199 478 q 149 387 165 413 q 124 361 133 361 q 109 367 115 361 q 103 381 103 372 q 114 408 103 385 q 139 459 125 431 q 165 513 153 488 q 182 546 178 538 q 144 551 163 551 q 106 550 125 550 q 76 552 90 550 q 49 563 63 554 q 74 583 53 576 q 121 591 94 589 q 173 593 147 593 q 211 594 199 593 q 253 696 233 644 q 301 796 274 747 l 315 800 l 325 786 q 313 740 321 764 q 294 690 304 715 q 273 641 283 665 q 254 596 263 617 z "},",":{"ha":249,"x_min":6,"x_max":106,"o":"m 6 349 q 35 413 19 381 q 72 474 51 446 l 96 488 l 106 465 q 72 394 103 426 q 6 349 40 361 z "},"-":{"ha":617,"x_min":32,"x_max":528,"o":"m 32 572 q 63 587 36 581 q 128 597 89 593 q 216 604 168 601 q 311 609 264 607 q 400 612 358 611 q 468 613 442 613 q 528 590 504 613 l 506 574 q 317 555 417 556 q 126 554 218 554 l 67 554 q 46 558 56 554 q 32 572 36 561 z "},".":{"ha":238,"x_min":22,"x_max":88,"o":"m 88 486 q 71 453 88 471 q 38 436 54 436 q 22 450 22 436 q 26 466 22 456 q 35 486 29 476 q 48 503 40 496 q 63 511 56 511 q 80 503 72 511 q 88 486 88 496 z "},"/":{"ha":418,"x_min":-39,"x_max":579,"o":"m -32 253 q -39 271 -39 263 q -16 321 -39 282 q 44 417 7 360 q 131 545 82 475 q 233 688 181 615 q 337 830 285 760 q 433 956 389 900 q 508 1049 476 1011 q 551 1094 539 1086 l 579 1092 l 579 1065 l 574 1058 q 422 874 494 968 q 280 683 349 781 q 144 488 211 586 q 10 290 78 389 q -8 267 -1 275 q -32 253 -14 260 z "},";":{"ha":260,"x_min":6,"x_max":160,"o":"m 6 349 q 35 413 19 381 q 72 474 51 446 l 96 488 l 106 465 q 72 394 103 426 q 6 349 40 361 m 160 628 q 143 595 160 613 q 110 578 126 578 q 94 592 94 578 q 98 608 94 597 q 107 628 101 618 q 120 645 113 638 q 135 653 128 653 q 152 645 144 653 q 160 628 160 638 z "},"=":{"ha":614,"x_min":35,"x_max":522,"o":"m 39 485 q 61 515 35 511 q 234 536 144 531 q 410 542 324 542 q 488 522 451 542 q 444 510 476 515 q 368 499 413 504 q 274 492 324 494 q 177 488 224 489 q 93 485 131 486 q 39 485 56 485 m 72 626 q 151 642 106 636 q 244 649 196 647 q 339 651 292 651 q 422 651 386 651 q 472 647 447 651 q 522 640 497 643 q 481 626 511 632 q 413 617 451 621 q 329 610 374 613 q 244 607 285 608 q 169 605 203 606 q 118 604 136 604 q 72 626 90 604 z "},"¢":{"ha":608,"x_min":-11,"x_max":524,"o":"m 272 485 l 451 508 q 408 475 432 488 q 358 455 385 463 q 305 443 332 447 q 251 436 278 439 q 226 385 244 424 q 184 304 207 346 q 141 229 161 263 q 113 196 121 196 q 100 203 106 196 q 94 215 94 210 q 110 249 94 218 q 144 318 125 281 q 182 390 164 356 q 204 435 200 425 q 144 440 181 436 q 73 453 107 443 q 14 483 39 464 q -11 535 -11 501 q 17 604 -11 575 q 86 654 44 633 q 177 688 128 675 q 270 712 226 701 q 346 730 314 722 q 383 746 378 738 q 402 774 388 753 q 433 817 417 794 q 463 858 449 840 q 482 875 476 875 q 496 872 489 875 q 481 839 492 858 q 456 799 469 819 q 428 760 442 779 q 407 726 415 740 q 441 713 421 719 q 480 696 461 706 q 511 672 499 686 q 524 639 524 658 q 520 621 524 631 q 510 602 517 611 q 496 587 504 593 q 479 581 488 581 q 466 587 472 583 q 460 599 460 590 q 468 617 464 608 q 478 636 472 626 q 433 669 458 664 q 376 676 408 674 l 272 485 m 336 679 q 292 673 321 678 q 231 659 264 668 q 163 638 197 650 q 100 610 128 625 q 54 576 72 594 q 36 536 36 557 q 58 506 36 517 q 110 489 81 494 q 169 482 140 483 q 213 481 199 481 q 241 507 222 481 q 279 568 260 533 q 315 635 299 603 q 336 679 332 667 z "},"€":{"ha":644,"x_min":7,"x_max":668,"o":"m 551 822 q 573 856 560 836 q 598 898 586 876 q 618 940 610 919 q 626 978 626 961 q 613 1011 626 999 q 579 1024 599 1024 q 510 999 551 1024 q 430 941 469 975 q 358 871 390 907 q 317 811 326 835 q 365 817 340 814 q 414 821 389 821 q 493 807 457 821 q 440 781 465 788 q 393 774 415 775 q 350 774 371 774 q 310 767 329 774 q 270 742 290 760 q 229 690 250 725 q 386 717 308 706 q 543 728 464 728 q 569 721 557 728 q 582 699 582 714 q 575 683 582 690 q 559 672 568 676 q 540 667 550 668 q 522 665 529 665 l 500 668 l 475 692 q 353 672 413 682 q 231 651 293 663 q 199 624 214 649 q 172 569 183 600 q 155 507 161 538 q 149 460 149 476 q 151 427 149 444 q 160 395 153 410 q 178 371 167 381 q 210 361 190 361 q 292 388 246 361 q 385 452 339 415 q 474 528 432 489 q 542 593 515 568 q 497 503 533 550 q 412 415 461 456 q 309 349 363 375 q 214 322 256 322 q 167 333 188 322 q 134 361 147 343 q 115 402 121 379 q 108 449 108 425 q 122 540 108 497 q 151 628 136 582 q 116 623 133 628 q 82 612 99 618 q 49 601 65 606 q 14 596 32 596 l 8 596 l 7 604 q 32 634 7 626 q 91 651 57 642 q 161 682 125 661 q 218 753 197 703 q 108 744 165 744 l 86 757 l 104 778 q 149 790 125 788 q 197 794 172 792 q 242 803 221 797 q 278 829 263 810 q 335 899 300 858 q 413 975 371 939 q 498 1037 454 1011 q 582 1063 542 1063 q 644 1037 619 1063 q 668 975 668 1011 q 659 935 668 963 q 636 879 650 907 q 606 831 622 851 q 576 810 590 810 q 563 815 572 810 q 551 822 554 819 z "},"¥":{"ha":594,"x_min":-21,"x_max":671,"o":"m 285 475 q 363 486 325 479 q 442 493 401 493 q 490 489 467 493 l 467 472 q 397 460 435 465 q 324 446 360 456 q 261 417 289 436 q 221 365 233 399 q 283 378 250 371 q 350 394 315 386 q 417 406 385 401 q 479 411 450 411 q 499 408 489 411 q 508 393 508 406 q 467 365 493 369 q 415 360 440 360 q 308 349 363 360 q 203 326 253 338 q 170 294 190 324 q 128 228 150 265 q 85 158 107 192 q 50 111 64 124 l 29 111 l 21 131 q 38 166 24 142 q 68 217 51 190 q 101 269 85 244 q 125 308 117 294 l -12 292 l -21 300 q -5 319 -18 314 q 28 327 8 324 q 71 333 47 331 q 117 345 94 336 q 161 372 140 354 q 196 422 182 390 q 110 410 154 418 q 24 403 65 401 l 0 419 q 51 447 25 442 q 101 453 76 453 q 151 452 126 453 q 199 462 175 451 q 249 499 224 472 q 299 582 274 526 q 259 556 283 572 q 208 524 235 540 q 156 497 182 508 q 114 486 131 486 q 83 499 94 486 q 72 529 72 511 q 85 586 72 551 q 119 661 99 621 q 165 744 139 701 q 216 826 190 788 q 264 896 242 864 q 301 946 286 928 l 318 949 l 324 929 q 269 842 304 896 q 199 731 233 789 q 138 619 164 674 q 111 529 111 565 l 111 521 q 207 567 158 539 q 301 628 256 594 q 386 701 346 663 q 458 781 426 740 q 494 824 468 793 q 549 886 519 854 q 606 943 579 918 q 646 968 633 968 q 669 961 661 968 l 671 933 q 637 886 660 913 q 587 833 614 860 q 533 781 560 807 q 488 738 506 756 q 381 610 428 675 q 285 475 333 546 z "},"×":{"ha":619,"x_min":4,"x_max":589,"o":"m 165 719 q 224 685 200 711 q 275 639 247 660 q 415 740 346 694 q 568 818 483 785 l 589 813 l 304 606 q 367 533 336 569 q 415 450 397 496 q 341 513 372 476 q 274 582 310 549 q 244 559 265 575 q 196 522 222 543 q 140 477 169 500 q 84 435 110 454 q 40 404 58 417 q 17 392 22 392 q 8 394 11 392 q 4 407 4 400 q 19 431 4 414 q 58 469 35 447 q 110 513 82 490 q 165 556 139 536 q 213 592 192 576 q 242 615 233 608 q 222 641 233 629 q 199 665 211 653 q 178 690 188 676 q 165 719 169 703 z "},"÷":{"ha":558,"x_min":58,"x_max":465,"o":"m 313 599 l 382 599 q 419 599 400 599 q 454 590 438 599 l 465 568 l 449 556 q 269 549 358 557 q 89 542 179 542 l 72 543 l 58 558 l 69 576 q 118 585 86 582 q 187 591 150 589 q 258 594 224 593 q 313 597 292 596 l 313 599 m 285 499 l 281 483 q 256 465 268 474 q 231 449 244 456 q 217 453 224 451 q 206 461 210 456 l 211 483 q 261 508 233 500 l 285 499 m 306 693 q 282 675 296 685 q 254 665 268 665 q 239 673 247 668 q 231 688 231 678 l 238 703 q 260 718 247 710 q 285 726 274 726 q 301 717 297 726 q 306 696 306 707 l 306 693 z "},"O":{"ha":888,"x_min":4,"x_max":851,"o":"m 418 888 q 249 803 329 847 q 86 706 168 758 q 82 721 82 711 q 108 758 82 736 q 175 803 135 779 q 265 851 215 828 q 360 895 314 875 q 442 930 406 915 q 494 950 478 944 q 563 978 529 963 q 628 1011 596 994 q 695 1042 661 1028 q 767 1065 729 1057 l 647 988 q 723 975 686 982 q 788 951 760 968 q 834 906 817 935 q 851 828 851 878 q 819 679 851 758 q 734 521 788 600 q 609 368 681 442 q 460 238 538 294 q 302 148 382 182 q 150 114 222 114 q 44 147 83 114 q 4 250 4 181 q 24 372 4 313 q 78 488 44 432 q 154 597 111 544 q 244 699 197 650 q 336 794 290 749 q 422 879 382 839 l 418 888 m 663 950 q 549 913 613 950 q 417 815 485 875 q 285 678 350 754 q 170 524 221 601 q 89 374 119 446 q 58 250 58 301 q 83 183 58 200 q 156 165 108 165 q 290 198 218 165 q 435 285 363 231 q 576 409 508 339 q 695 553 643 479 q 778 701 747 628 q 810 836 810 775 q 797 887 810 865 q 763 922 783 908 q 715 943 742 936 q 663 950 689 950 z "},"N":{"ha":982,"x_min":10,"x_max":1011,"o":"m 197 369 q 283 459 226 401 q 410 585 339 517 q 562 725 482 654 q 718 854 642 796 q 861 949 794 913 q 972 986 928 986 q 1000 974 989 986 q 1011 946 1011 963 q 981 841 1011 908 q 904 691 950 774 q 806 517 858 608 q 707 341 753 426 q 631 184 661 256 q 600 68 600 113 q 626 11 600 33 q 613 -6 621 3 q 594 -15 606 -15 q 576 -8 583 -15 q 563 11 568 0 q 554 34 557 22 q 551 54 551 46 q 572 155 551 94 q 624 285 592 215 q 695 428 656 354 q 774 572 735 503 q 848 698 814 640 q 904 793 882 756 q 944 864 925 829 q 974 939 963 899 q 951 946 963 946 q 940 943 949 946 q 928 939 931 940 q 784 863 857 913 q 638 748 711 813 q 491 610 564 683 q 349 463 418 536 q 217 322 281 389 q 97 204 153 256 l 76 201 l 65 224 q 99 299 71 250 q 165 411 126 349 q 250 545 204 474 q 338 687 296 617 q 414 822 381 757 q 461 938 447 888 q 350 906 407 935 q 238 839 293 878 q 133 758 183 800 q 40 685 82 715 l 19 671 l 10 689 q 45 738 17 710 q 115 799 74 767 q 204 862 156 831 q 299 919 253 893 q 383 960 344 944 q 443 975 422 975 q 478 967 463 975 q 493 935 493 958 q 475 860 493 904 q 428 764 457 815 q 366 656 400 713 q 299 548 332 600 q 237 451 265 496 q 193 374 208 406 l 197 369 z "},"M":{"ha":1275,"x_min":-6,"x_max":1314,"o":"m 804 -24 q 790 -28 797 -26 q 775 -29 782 -29 q 743 -8 750 -29 q 736 33 736 14 q 767 151 736 79 q 848 308 799 224 q 958 485 897 393 q 1076 662 1018 576 q 1185 819 1135 747 q 1263 939 1235 892 q 1213 917 1247 940 q 1131 853 1178 893 q 1030 762 1085 814 q 919 656 975 710 q 808 549 863 601 q 710 456 754 497 q 636 390 667 415 q 596 365 606 365 q 587 367 593 365 q 578 371 581 369 q 565 396 565 381 q 576 434 565 406 q 604 501 588 463 q 642 583 621 539 q 682 667 663 626 q 717 742 701 708 q 739 794 732 776 q 650 728 704 776 q 533 617 596 679 q 406 488 471 556 q 287 363 342 419 q 192 268 232 306 q 140 231 153 231 l 126 238 q 119 260 119 247 q 149 323 119 271 q 222 448 178 375 q 321 605 267 521 q 424 766 375 689 q 510 903 472 843 q 560 986 547 963 q 474 952 521 978 q 378 892 428 926 q 276 817 328 857 q 176 738 225 776 q 83 665 128 699 q 1 610 38 631 l -6 625 q 38 672 -1 638 q 135 751 78 707 q 261 844 193 796 q 390 932 329 892 q 497 998 451 972 q 558 1024 543 1024 q 584 1013 574 1024 q 594 988 594 1003 q 569 915 594 964 q 503 806 543 867 q 417 677 464 744 q 328 547 369 610 q 256 434 286 485 q 219 356 226 383 q 279 417 239 374 q 370 513 319 460 q 478 624 421 567 q 587 729 535 682 q 681 807 639 776 q 743 838 722 838 q 767 826 758 838 q 776 799 776 814 q 758 726 776 774 q 715 624 739 678 q 666 520 690 571 q 632 439 642 469 q 704 508 654 458 q 818 619 754 557 q 952 747 882 681 q 1087 869 1022 814 q 1203 960 1151 925 q 1279 996 1254 996 q 1303 986 1293 996 q 1314 963 1314 976 q 1291 903 1314 944 q 1231 803 1268 861 q 1145 674 1193 744 q 1048 530 1097 604 q 951 381 999 456 q 865 240 903 307 q 805 119 828 174 q 782 29 782 64 q 804 -24 782 1 z "},"L":{"ha":742,"x_min":-31,"x_max":703,"o":"m 703 313 q 573 225 646 269 q 421 145 500 181 q 260 87 342 110 q 107 64 179 64 q 55 69 79 64 q 11 85 31 74 q -19 118 -8 97 q -31 171 -31 139 q -2 285 -31 214 q 72 442 26 357 q 174 616 117 526 q 286 784 231 706 q 390 923 342 863 q 469 1010 439 983 l 476 985 q 463 963 471 974 q 449 942 456 953 q 380 847 422 907 q 289 716 338 788 q 190 566 240 644 q 100 413 140 488 q 35 276 60 339 q 10 171 10 213 q 29 126 10 142 q 76 110 49 110 q 272 138 186 110 q 431 203 358 167 q 569 274 504 240 q 700 319 633 308 l 703 313 z "},"K":{"ha":921,"x_min":-87,"x_max":1210,"o":"m 290 589 q 367 633 317 604 q 481 699 417 663 q 618 778 544 736 q 766 860 692 819 q 911 940 840 901 q 1040 1008 982 978 q 1140 1056 1099 1038 q 1196 1078 1181 1075 l 1210 1068 l 1206 1054 q 1190 1045 1199 1049 q 1175 1038 1182 1042 q 721 795 943 921 q 281 529 499 669 q 348 445 310 486 q 422 365 386 404 q 503 279 468 315 q 570 218 539 243 q 632 176 601 193 q 701 149 663 160 q 788 128 739 138 q 903 111 836 119 l 908 107 q 858 85 885 92 q 803 78 831 78 q 662 109 728 78 q 538 187 596 140 q 433 288 481 233 q 347 388 385 342 q 281 466 308 435 q 239 499 254 497 q 212 469 231 496 q 168 403 193 443 q 115 317 143 364 q 63 228 88 271 q 19 153 38 186 q -7 107 0 119 q -29 57 -19 83 q -57 11 -39 31 l -78 8 l -87 26 q -50 116 -81 57 q 26 252 -19 175 q 126 417 71 329 q 241 593 182 506 q 358 761 300 681 q 463 904 415 842 q 546 1003 511 967 q 593 1042 581 1040 q 604 1035 599 1040 q 610 1025 610 1031 q 605 1015 610 1021 q 597 1007 600 1010 q 517 915 560 967 q 431 806 474 863 q 351 694 389 750 q 290 589 314 638 z "},"J":{"ha":1032,"x_min":7,"x_max":1215,"o":"m 557 460 q 464 457 517 460 q 355 445 411 454 q 244 420 299 436 q 147 377 190 404 q 78 310 104 350 q 51 217 51 271 q 65 144 51 179 q 104 81 79 108 q 163 38 129 54 q 235 21 196 21 q 367 57 300 21 q 501 152 435 93 q 630 288 567 211 q 749 444 693 364 q 855 601 806 524 q 942 741 904 679 q 1006 844 981 803 q 1043 890 1032 885 l 1051 864 q 1047 851 1049 857 q 1042 839 1044 846 q 964 694 1013 781 q 853 511 915 607 q 717 319 790 415 q 563 147 643 224 q 401 23 483 71 q 238 -25 318 -25 q 148 -6 190 -25 q 74 47 106 14 q 25 122 43 79 q 7 211 7 165 q 38 331 7 282 q 120 413 69 381 q 235 465 171 446 q 367 492 300 483 q 499 503 435 501 q 615 506 564 506 q 645 507 629 506 q 676 507 661 508 q 704 499 692 506 q 724 479 717 493 l 707 457 q 676 453 696 453 q 634 454 656 453 q 592 458 613 456 q 557 460 571 460 m 288 838 q 341 854 315 853 q 397 858 367 856 q 565 875 469 863 q 760 907 661 888 q 951 954 860 926 q 1106 1017 1043 982 q 1147 1045 1128 1029 q 1189 1072 1167 1061 l 1215 1063 l 1215 1035 q 1126 973 1186 1001 q 989 919 1065 944 q 826 875 913 894 q 658 842 740 856 q 508 820 576 828 q 396 813 439 813 q 342 816 368 813 q 289 828 315 819 l 288 838 z "},"I":{"ha":849,"x_min":-64,"x_max":1181,"o":"m 1021 963 q 919 957 969 963 q 818 942 868 951 l 322 246 q 520 271 419 257 q 718 285 621 285 q 751 281 733 285 q 768 257 768 276 q 756 238 768 244 q 726 226 743 231 q 691 222 708 222 q 664 221 674 221 q 620 225 642 221 q 576 229 599 229 q 454 222 517 229 q 328 203 392 214 q 203 180 265 193 q 82 157 140 167 q 21 142 53 151 q -42 132 -11 132 q -56 134 -49 132 q -64 146 -64 136 q -51 168 -64 163 q -25 176 -39 174 q 84 206 25 189 q 194 225 143 222 q 265 245 242 228 q 314 300 288 263 q 530 603 421 454 q 744 907 639 753 q 752 919 749 914 q 758 932 756 925 q 485 866 619 900 q 218 781 351 832 q 201 774 210 778 q 182 769 192 769 q 172 771 176 769 q 161 774 167 772 l 172 796 q 278 842 211 818 q 426 889 344 867 q 596 931 507 911 q 768 967 685 951 q 922 991 851 982 q 1038 1000 993 1000 q 1072 999 1049 1000 q 1120 994 1096 999 q 1163 979 1144 989 q 1181 953 1181 969 q 1169 936 1181 942 q 1143 927 1158 931 q 1113 923 1128 924 q 1090 922 1099 922 q 1058 928 1058 922 q 1064 961 1058 935 l 1021 963 z "},"H":{"ha":985,"x_min":1,"x_max":1294,"o":"m 1086 1021 q 750 852 918 929 q 406 700 582 775 q 356 654 375 686 q 320 590 346 638 q 261 482 294 543 q 190 354 228 421 q 120 233 153 288 q 63 142 88 178 q 31 106 39 106 q 1 133 1 106 q 12 211 1 169 q 35 297 22 253 q 58 388 47 342 q 68 479 68 435 q 61 531 68 510 q 46 565 54 551 q 31 586 38 578 q 24 601 24 594 q 45 619 24 608 q 99 641 67 629 q 169 665 131 653 q 242 688 207 678 q 301 704 276 697 q 333 714 326 711 q 368 744 349 718 q 409 808 388 771 q 453 889 431 844 q 498 974 476 933 q 539 1046 519 1014 q 574 1093 558 1078 l 586 1086 q 590 1074 590 1079 q 578 1047 590 1069 q 548 990 567 1024 q 507 919 529 957 q 464 845 485 881 q 428 783 443 810 q 407 744 413 756 q 527 788 457 761 q 676 850 597 815 q 837 925 756 885 q 992 1009 918 965 q 1124 1097 1065 1053 q 1218 1185 1183 1142 l 1244 1172 q 1260 1181 1251 1175 q 1276 1186 1269 1186 q 1290 1178 1286 1186 q 1294 1161 1294 1169 q 1276 1145 1294 1158 q 1233 1116 1257 1132 q 1188 1084 1210 1100 q 1160 1058 1167 1068 q 871 601 1007 835 q 608 128 735 368 q 565 30 585 83 q 514 -64 544 -24 l 494 -68 l 486 -53 q 522 66 486 -15 q 614 251 557 147 q 740 469 671 354 q 876 692 810 585 q 999 886 943 799 q 1086 1021 1056 974 m 321 665 l 85 592 q 111 465 111 533 q 99 356 111 410 q 79 249 88 303 l 321 665 z "},"G":{"ha":954,"x_min":4,"x_max":1174,"o":"m 1032 933 q 963 874 1006 910 q 867 798 919 838 q 758 718 815 758 q 644 647 700 678 q 540 595 589 615 q 457 575 492 575 q 400 594 424 575 q 376 649 376 613 q 400 735 376 690 q 463 824 424 781 q 553 905 503 867 q 655 972 603 943 q 757 1019 707 1001 q 847 1036 807 1036 q 895 1033 871 1036 q 940 1019 919 1029 q 975 991 961 1008 q 993 946 989 974 q 1068 1017 1031 981 q 1147 1082 1106 1053 l 1171 1082 l 1174 1058 q 1141 1002 1165 1039 q 1083 917 1117 965 q 1009 815 1050 869 q 927 704 968 760 q 847 595 886 649 q 776 498 807 542 q 726 423 746 454 q 703 381 706 392 q 735 363 717 372 q 769 344 753 354 q 799 320 786 333 q 815 289 811 307 l 789 281 q 733 315 757 294 q 676 350 708 336 q 609 276 644 318 q 535 188 574 233 q 453 99 496 143 q 365 20 411 54 q 272 -35 319 -14 q 172 -57 224 -57 q 98 -37 129 -57 q 46 13 67 -18 q 15 83 25 44 q 4 158 4 121 q 31 294 4 231 q 103 403 57 357 q 213 477 150 450 q 347 504 275 504 q 510 473 432 504 q 664 407 589 442 q 853 665 764 533 q 1039 926 943 796 l 1032 933 m 635 368 q 574 403 611 386 q 497 432 538 419 q 415 452 456 444 q 346 460 375 460 q 229 437 283 460 q 134 374 175 414 q 70 280 93 335 q 47 163 47 225 q 54 103 47 135 q 76 47 61 72 q 115 3 92 21 q 171 -14 138 -14 q 253 6 210 -14 q 340 60 296 26 q 427 135 383 93 q 509 219 471 176 q 580 301 547 261 q 635 368 613 340 m 974 929 q 947 963 957 950 q 924 985 936 976 q 893 996 911 993 q 844 999 875 999 q 763 983 808 999 q 669 940 717 967 q 575 878 621 914 q 494 803 529 843 q 436 722 458 764 q 414 643 414 681 q 426 620 414 628 q 451 613 438 613 q 528 630 483 613 q 622 676 572 647 q 724 739 672 704 q 822 809 775 774 q 909 876 869 844 q 974 929 949 908 z "},"F":{"ha":908,"x_min":-15,"x_max":1260,"o":"m 769 540 q 703 526 738 525 q 636 528 669 528 q 488 523 561 528 q 339 510 414 518 q 276 401 307 456 q 218 289 246 346 q 187 217 200 253 q 153 144 174 181 l 128 128 l 115 151 q 130 203 115 168 q 168 285 144 238 q 223 388 192 332 q 288 503 254 444 l 208 490 q 197 488 201 489 q 185 486 192 486 q 174 490 181 486 q 168 500 168 494 q 178 519 168 517 q 201 524 189 521 l 308 539 q 378 656 343 599 q 443 764 413 714 q 497 853 474 814 q 533 914 521 892 q 542 929 538 921 q 556 938 546 938 q 569 931 563 938 q 576 918 576 925 q 573 907 576 914 q 567 896 569 900 q 466 719 518 806 q 361 544 414 632 q 524 562 443 556 q 689 568 606 568 q 733 562 713 568 q 769 540 753 556 m 988 1050 q 735 1033 860 1050 q 487 987 610 1015 q 242 921 364 958 q 1 843 121 883 l -15 846 l -12 863 q 106 926 28 896 q 285 982 185 956 q 496 1028 385 1008 q 712 1064 607 1049 q 906 1087 817 1079 q 1051 1094 996 1094 q 1093 1094 1065 1094 q 1151 1092 1121 1093 q 1206 1087 1181 1090 q 1243 1078 1232 1083 l 1260 1057 q 1238 1034 1253 1038 q 1207 1031 1224 1031 q 1099 1040 1153 1031 q 988 1050 1044 1050 z "},"E":{"ha":1157,"x_min":-7,"x_max":1243,"o":"m 1129 421 q 926 303 1038 354 q 694 218 814 253 q 453 165 575 183 q 221 147 331 147 q 154 150 193 147 q 79 164 115 153 q 18 199 43 175 q -7 265 -7 224 q 36 370 -7 324 q 145 454 79 417 q 292 522 211 492 q 447 576 372 551 q 582 620 522 600 q 668 658 642 640 q 611 668 649 661 q 528 685 574 675 q 433 708 482 694 q 345 738 385 721 q 280 776 306 756 q 254 822 254 797 q 292 881 254 856 q 387 924 329 906 q 515 954 444 942 q 650 974 585 967 q 768 983 715 981 q 844 986 821 986 q 933 984 879 986 q 1042 976 986 982 q 1149 962 1099 971 q 1229 939 1200 953 l 1243 913 l 1217 904 q 1133 928 1179 919 q 1040 940 1088 936 q 944 944 992 943 q 858 944 897 944 q 787 942 835 944 q 681 933 739 939 q 560 917 622 926 q 443 894 497 907 q 350 863 389 881 q 300 822 311 844 q 339 790 306 806 q 420 760 372 774 q 525 735 468 746 q 634 715 582 724 q 728 701 686 707 q 788 693 769 694 q 816 689 803 692 q 829 664 829 686 q 817 644 829 651 q 790 631 806 636 q 759 622 775 625 q 735 617 743 619 q 644 592 707 610 q 503 550 581 575 q 344 493 426 525 q 194 424 263 461 q 83 347 126 388 q 39 265 39 307 q 61 226 39 240 q 113 205 83 213 q 173 196 143 197 q 218 194 203 194 q 452 215 339 194 q 675 269 565 236 q 894 343 785 303 q 1115 424 1003 383 l 1129 421 z "},"D":{"ha":1428,"x_min":-6,"x_max":1390,"o":"m 346 81 q 334 60 342 75 q 317 31 326 46 q 301 2 308 15 q 289 -14 293 -11 l 264 -17 l 254 11 q 267 42 260 28 q 281 72 274 57 q 188 77 236 75 q 97 92 139 79 q 27 138 56 106 q -6 232 -1 169 l 8 221 q 59 173 38 190 q 103 147 81 156 q 154 137 126 139 q 224 135 182 135 q 253 133 238 135 q 283 133 268 132 q 310 140 297 135 q 332 160 324 146 q 382 239 344 181 q 467 374 419 297 q 566 537 514 451 q 661 696 618 622 q 732 822 704 769 q 760 883 760 874 q 766 905 760 893 q 781 928 772 917 q 799 951 790 940 q 815 968 808 961 q 563 942 689 960 q 314 878 436 925 q 297 870 308 875 q 274 860 286 865 q 251 851 263 856 q 236 847 240 847 q 228 853 232 847 q 221 863 224 858 q 275 910 228 889 q 390 949 322 932 q 536 978 457 967 q 688 999 615 990 q 818 1011 761 1007 q 899 1015 875 1015 q 986 1013 935 1015 q 1092 1001 1038 1010 q 1199 976 1146 993 q 1295 933 1253 960 q 1364 865 1338 906 q 1390 769 1390 825 q 1336 603 1390 683 q 1196 453 1282 524 q 1003 322 1110 382 q 790 217 896 263 q 591 140 685 171 q 438 97 497 108 l 346 81 m 397 146 q 500 165 438 149 q 637 210 563 182 q 792 276 711 238 q 952 358 874 314 q 1102 453 1031 403 q 1227 556 1174 503 q 1313 665 1281 610 q 1344 775 1344 721 q 1321 848 1344 817 q 1259 901 1297 879 q 1174 935 1221 922 q 1079 956 1126 949 q 990 967 1032 964 q 919 969 947 969 q 883 963 896 969 q 856 938 871 957 q 788 835 828 897 q 702 699 747 774 q 609 545 657 625 q 518 391 561 465 q 440 253 475 317 q 388 149 406 190 l 397 146 z "},"C":{"ha":1157,"x_min":0,"x_max":1083,"o":"m 978 850 q 994 876 983 864 q 1016 899 1006 888 q 1035 924 1026 911 q 1046 954 1043 938 q 1018 978 1035 971 q 983 985 1001 985 q 823 958 918 985 q 623 884 728 932 q 414 771 518 836 q 227 628 310 706 q 92 465 144 551 q 40 289 40 378 q 65 199 40 233 q 126 147 89 165 q 206 122 163 128 q 286 115 249 115 q 499 143 403 115 q 683 216 594 171 q 858 319 772 261 q 1040 439 944 378 l 1046 432 q 1014 378 1039 407 q 969 333 989 349 q 815 226 896 275 q 649 140 735 176 q 473 84 563 104 q 293 64 383 64 q 193 73 244 64 q 99 107 142 82 q 28 176 56 132 q 0 288 0 219 q 51 470 0 379 q 186 643 103 561 q 374 794 269 725 q 584 915 478 864 q 788 994 690 965 q 956 1024 886 1024 q 994 1023 972 1024 q 1037 1015 1017 1022 q 1070 994 1057 1008 q 1083 951 1083 979 q 1074 920 1083 938 q 1049 887 1064 903 q 1019 860 1035 871 q 992 849 1003 849 l 978 850 z "},"B":{"ha":1186,"x_min":7,"x_max":1176,"o":"m 856 994 q 705 958 781 976 q 554 918 629 940 q 407 867 479 896 q 265 800 335 839 q 229 772 242 788 q 203 741 217 756 q 172 715 190 726 q 118 701 153 704 l 111 710 q 194 796 135 754 q 335 874 254 838 q 509 942 417 911 q 691 994 601 972 q 857 1028 781 1017 q 982 1040 933 1040 q 1033 1037 1000 1040 q 1098 1024 1067 1033 q 1153 997 1129 1014 q 1176 950 1176 979 q 1137 873 1176 913 q 1036 793 1097 833 q 902 714 975 753 q 763 642 829 675 q 647 581 697 608 q 583 535 597 553 l 611 535 q 708 540 660 535 q 806 546 757 546 q 880 544 832 546 q 976 530 928 542 q 1059 495 1024 518 q 1094 431 1094 472 q 1089 400 1094 417 q 1074 367 1083 383 q 1056 337 1065 351 q 1038 313 1046 322 q 940 226 999 267 q 812 150 882 185 q 665 88 742 115 q 511 40 588 60 q 364 10 435 21 q 238 0 293 0 q 172 4 211 0 q 96 21 132 8 q 33 57 60 33 q 7 121 7 81 q 26 182 7 153 q 75 236 44 211 q 144 282 106 261 q 220 318 182 303 q 293 344 258 333 q 351 360 328 354 q 393 376 375 365 q 424 411 411 388 q 515 556 464 481 q 623 707 567 632 q 738 851 679 782 q 850 978 796 921 l 856 994 m 251 58 q 378 74 307 63 q 524 104 449 85 q 677 151 600 124 q 823 216 754 179 q 947 298 892 253 q 1038 399 1003 343 q 1045 413 1042 406 q 1049 428 1049 419 q 1028 459 1049 446 q 982 481 1008 472 q 929 494 956 490 q 890 499 903 499 q 847 499 876 499 q 780 499 818 499 q 701 497 742 499 q 624 493 660 496 q 564 486 589 490 q 532 475 539 482 q 500 435 515 460 q 472 390 485 410 q 484 375 478 383 q 490 357 490 367 q 474 341 483 346 q 454 332 465 336 q 433 323 443 328 q 414 306 422 318 q 331 182 371 244 q 251 58 292 119 m 900 976 q 884 942 900 968 q 842 883 868 917 q 786 810 817 849 q 726 734 756 771 q 672 667 696 697 q 635 619 647 636 q 693 645 650 624 q 792 697 736 667 q 908 763 847 726 q 1019 833 968 799 q 1102 897 1069 867 q 1135 944 1135 926 q 1114 975 1135 964 q 1065 991 1093 986 q 1010 997 1038 996 q 971 999 983 999 q 934 998 951 999 q 899 996 917 997 l 900 976 m 211 58 l 358 326 q 283 302 333 322 q 183 253 233 282 q 96 190 133 224 q 58 122 58 156 q 74 90 58 103 q 112 71 90 78 q 156 60 133 64 q 190 57 178 57 l 211 58 z "},"A":{"ha":1276,"x_min":-3,"x_max":1261,"o":"m 951 589 q 1082 592 1018 589 q 1213 594 1146 594 q 1244 589 1226 594 q 1261 564 1261 583 q 1237 542 1261 547 q 1181 538 1213 538 q 1119 542 1150 539 q 1078 544 1089 544 q 1005 544 1043 544 q 933 538 967 543 q 907 512 926 536 q 861 449 888 488 q 806 367 835 411 q 751 281 778 322 q 706 208 725 240 q 679 164 686 175 q 659 121 668 146 q 638 69 650 96 q 613 19 626 43 q 579 -21 599 -6 q 560 -24 568 -24 q 551 -22 556 -24 q 543 -19 547 -21 q 536 -6 539 -12 q 533 10 533 1 q 556 60 533 19 q 614 157 579 100 q 690 277 649 214 q 766 396 731 340 q 826 489 801 451 q 853 532 850 526 q 610 515 731 525 q 367 494 489 504 q 317 469 340 493 q 179 321 246 397 q 54 161 113 244 q 38 144 44 147 q 17 136 32 140 q 71 241 33 189 q 147 339 108 293 q 219 422 186 385 q 260 481 251 458 q 146 463 206 474 q 32 453 86 453 l 13 454 l -3 468 l 7 486 q 89 504 38 497 q 193 518 140 511 q 291 535 246 525 q 356 563 336 544 q 440 640 385 589 q 567 751 496 690 q 716 875 638 811 q 869 991 794 939 q 1009 1076 944 1043 q 1115 1110 1074 1110 q 1161 1094 1143 1110 q 1179 1050 1179 1078 q 1166 990 1179 1028 q 1132 909 1153 953 q 1085 817 1111 865 q 1035 726 1060 769 q 988 646 1010 682 q 951 589 965 610 m 410 547 q 613 563 513 554 q 817 579 714 572 q 863 581 847 581 q 886 588 878 582 q 901 606 894 593 q 925 644 908 618 q 1016 796 971 721 q 1106 949 1061 871 q 1126 996 1117 968 q 1136 1044 1136 1024 q 1113 1069 1136 1069 q 1022 1039 1079 1069 q 897 960 965 1008 q 754 852 828 911 q 613 736 681 793 q 491 631 546 679 q 407 558 436 583 l 410 547 z "},"u":{"ha":503,"x_min":-18,"x_max":518,"o":"m 518 526 q 464 486 501 507 q 388 458 426 465 q 321 461 350 450 q 292 515 292 472 q 297 548 292 532 q 304 581 301 564 q 242 543 279 567 q 166 497 206 519 q 88 459 126 475 q 24 443 50 443 q -7 453 4 443 q -18 482 -18 463 q -8 527 -18 503 q 17 575 3 551 q 49 620 32 599 q 79 657 67 642 l 89 657 l 96 644 q 50 560 74 600 q 8 474 26 521 q 108 508 50 479 q 219 571 165 538 q 313 631 274 604 q 354 657 351 657 l 368 651 q 375 636 375 647 q 367 618 375 633 q 351 584 360 603 q 334 546 342 565 q 326 514 326 526 q 353 492 326 493 q 415 497 381 490 q 479 513 449 503 q 518 526 510 524 z "},"t":{"ha":288,"x_min":-68,"x_max":728,"o":"m -18 368 q 67 399 26 379 q 148 442 108 418 q 226 490 188 465 q 304 536 264 514 q 245 480 288 514 q 153 413 203 446 q 57 358 104 381 q -18 335 10 335 q -50 347 -37 335 q -62 379 -62 360 q -42 452 -62 408 q 9 548 -22 496 q 80 655 40 600 q 157 760 119 710 q 226 853 194 811 q 276 921 258 894 q 265 924 271 922 q 253 925 258 925 q 110 917 182 925 q -33 910 38 910 q -68 919 -54 910 q -39 931 -62 926 q 18 940 -15 936 q 90 946 51 943 q 165 950 129 949 q 231 952 201 951 q 272 954 260 953 q 313 971 292 956 q 355 1009 333 986 q 397 1058 376 1032 q 437 1106 418 1083 q 472 1143 456 1128 q 501 1158 489 1158 l 514 1151 q 518 1139 518 1144 q 497 1108 518 1133 q 451 1051 476 1082 q 401 993 425 1021 q 369 956 376 965 q 534 951 453 956 q 699 947 615 947 q 719 944 711 947 q 728 925 728 940 q 720 913 728 915 q 706 910 713 910 q 536 919 622 910 q 364 928 450 928 q 325 899 353 928 q 263 826 297 871 q 189 729 228 782 q 115 627 150 676 q 54 539 81 578 q 18 485 28 500 q -8 432 1 457 q -28 376 -18 407 l -18 368 z "},"s":{"ha":265,"x_min":-222,"x_max":290,"o":"m 269 689 q 247 718 260 704 q 214 732 233 732 q 175 724 200 732 q 125 704 150 717 q 81 676 100 692 q 63 643 63 660 q 81 608 63 624 q 123 576 100 593 q 165 538 146 558 q 183 489 183 517 q 161 440 183 463 q 104 400 139 418 q 27 368 69 382 q -57 345 -15 354 q -133 331 -99 336 q -186 326 -168 326 q -210 331 -197 326 q -222 349 -222 335 q -208 369 -222 364 q -182 375 -194 374 q -141 381 -169 376 q -77 392 -112 385 q -3 410 -42 400 q 67 432 35 419 q 119 459 99 444 q 139 490 139 474 q 120 524 139 508 q 79 557 101 539 q 38 596 57 575 q 19 644 19 617 q 42 694 19 671 q 97 736 65 718 q 161 765 128 754 q 217 775 194 775 q 239 771 226 775 q 263 760 251 767 q 283 743 275 753 q 290 722 290 733 q 283 703 290 711 q 269 689 276 696 z "},"p":{"ha":385,"x_min":-387,"x_max":400,"o":"m 122 669 q 104 628 117 651 q 76 582 92 606 q 46 535 61 558 q 19 496 31 513 q 63 525 38 503 q 120 576 89 547 q 186 638 151 606 q 254 699 221 671 q 318 744 288 726 q 374 763 349 763 l 393 753 q 400 724 400 742 q 375 658 400 694 q 315 587 350 621 q 244 524 281 553 q 182 483 207 496 q 122 462 146 464 q 60 460 99 460 q 6 428 39 460 q -65 347 -26 396 q -146 238 -104 297 q -226 123 -187 178 q -299 24 -265 68 q -353 -36 -332 -19 l -378 -37 l -387 -12 q -367 19 -387 -10 q -315 95 -347 49 q -240 200 -282 142 q -153 320 -197 258 q -65 442 -108 382 q 15 551 -21 501 q 77 634 51 600 q 111 678 103 668 l 122 669 m 367 722 q 297 686 340 715 q 210 620 254 657 q 128 545 165 583 q 74 485 90 507 q 159 517 114 494 q 246 573 204 540 q 319 644 288 606 q 367 722 351 682 z "},"o":{"ha":386,"x_min":-42,"x_max":496,"o":"m 265 643 q 236 563 264 604 q 168 487 208 521 q 83 431 128 453 q 0 410 38 410 q -29 418 -17 410 q -42 446 -42 426 q -24 497 -42 471 q 18 549 -7 524 q 69 594 43 574 q 115 628 96 615 l 107 661 q 145 678 113 672 q 216 685 178 683 q 290 688 254 688 q 342 688 326 688 q 380 685 354 688 q 431 678 406 683 q 476 662 457 672 q 496 633 496 651 q 490 619 496 626 q 478 613 485 613 q 458 625 469 613 q 435 640 447 638 q 344 651 388 651 q 265 643 304 651 m 222 639 l 213 640 q 141 608 176 628 q 75 563 106 589 q 21 506 44 538 q -15 436 -3 474 q 60 460 22 444 q 130 498 97 475 q 188 551 163 521 q 226 619 214 581 l 222 639 z "},"n":{"ha":407,"x_min":-67,"x_max":417,"o":"m 251 531 q 252 504 247 514 q 275 494 257 494 q 328 500 293 493 q 417 522 363 507 q 363 490 397 507 q 296 465 329 472 q 238 469 263 458 q 214 519 214 479 q 217 556 214 538 q 222 592 219 574 q 92 525 153 565 q -22 436 32 485 q -34 425 -29 431 q -46 417 -39 419 l -67 421 l -67 439 q -26 497 -50 467 q 25 557 -1 528 q 78 613 51 586 q 129 664 106 640 q 137 656 133 660 q 140 644 140 651 q 133 631 140 640 q 118 610 126 621 q 101 589 110 599 q 90 575 93 579 l 94 569 q 124 584 107 575 q 158 602 140 593 q 194 617 176 611 q 224 624 211 624 q 251 613 243 624 q 259 587 258 601 q 257 556 260 572 q 251 531 254 540 z "},"m":{"ha":611,"x_min":-108,"x_max":628,"o":"m 249 675 q 213 647 235 665 q 166 606 192 629 q 111 557 140 583 q 53 506 82 531 q -90 375 -14 446 l -104 382 q -107 387 -106 385 q -108 392 -108 389 q -90 418 -108 394 q -45 476 -72 442 q 15 549 -18 510 q 77 624 47 589 q 129 686 107 660 q 160 719 151 713 q 164 700 164 708 q 157 682 164 693 q 141 658 150 671 q 123 632 132 644 q 111 611 114 619 q 146 637 125 619 q 189 672 167 654 q 232 703 211 690 q 268 717 253 717 q 285 709 278 717 q 292 692 292 701 q 281 650 292 678 q 254 591 269 622 q 224 531 239 560 q 200 486 208 501 q 255 521 221 496 q 324 572 289 546 q 389 617 358 597 q 435 636 419 636 q 456 626 449 636 q 463 601 463 615 q 455 569 463 586 q 438 534 447 551 q 420 499 428 517 q 411 465 413 481 q 462 475 436 467 q 515 494 488 483 q 570 516 542 506 q 628 533 599 526 q 576 497 607 517 q 513 463 544 478 q 453 437 481 447 q 413 426 425 426 q 385 442 393 426 q 376 474 376 457 q 383 506 376 489 q 399 539 390 522 q 415 572 407 556 q 426 603 424 588 q 377 567 410 592 q 309 516 344 542 q 242 471 274 490 q 196 451 211 451 q 174 478 174 451 q 184 519 174 493 q 208 572 194 544 q 236 625 222 599 q 257 668 250 651 l 249 675 z "},"l":{"ha":267,"x_min":-19,"x_max":457,"o":"m 278 522 q 226 478 254 501 q 167 435 199 454 q 103 402 136 415 q 36 389 69 389 q -6 405 8 389 q -19 446 -19 421 q 1 531 -19 486 q 55 624 22 576 q 127 720 88 672 q 206 814 167 768 q 277 901 244 860 q 328 976 310 942 q 367 1022 343 1004 q 418 1054 392 1039 l 457 1049 q 396 981 436 1026 q 307 880 356 936 q 207 760 258 824 q 114 639 156 697 q 45 532 72 581 q 18 456 18 483 q 25 435 18 444 q 43 426 32 426 q 83 440 51 426 q 153 472 115 454 q 224 506 190 489 q 272 528 258 522 l 278 522 z "},"k":{"ha":456,"x_min":-35,"x_max":475,"o":"m -35 461 q -19 494 -29 474 q 1 537 -10 515 q 24 578 13 558 q 43 608 35 597 q 92 656 58 615 q 169 756 126 697 q 260 880 213 814 q 349 1002 307 946 q 421 1095 390 1058 q 463 1133 451 1132 l 474 1126 l 475 1114 q 474 1106 475 1111 q 474 1099 474 1101 q 417 1032 449 1061 q 361 967 386 1003 q 242 810 300 888 q 129 650 183 732 q 156 660 135 653 q 206 678 178 668 q 264 701 233 689 q 321 722 294 713 q 365 738 347 732 q 383 744 382 744 q 396 738 390 744 q 404 728 401 732 q 252 658 329 690 q 100 592 175 626 q 169 529 143 554 q 222 487 196 504 q 280 456 247 469 q 367 428 313 443 q 343 410 356 417 q 315 404 331 404 q 256 423 289 404 q 188 467 222 442 q 124 520 154 493 q 71 564 93 547 q 24 502 43 536 q -25 440 4 468 l -35 461 z "},"j":{"ha":174,"x_min":-574,"x_max":204,"o":"m -51 393 q 65 468 7 431 q 190 529 124 506 q 39 415 115 472 q -108 294 -37 357 q -199 197 -154 254 q -289 76 -244 139 q -379 -48 -333 14 q -474 -157 -425 -110 q -488 -170 -479 -162 q -507 -185 -497 -178 q -526 -198 -517 -193 q -544 -203 -536 -203 q -565 -195 -556 -203 q -574 -176 -574 -187 q -547 -109 -574 -150 q -477 -21 -519 -68 q -384 76 -435 26 q -285 174 -333 126 q -199 260 -237 221 q -142 324 -160 299 q -35 479 -87 401 q 69 636 18 557 q 78 650 72 640 q 90 660 83 660 q 103 656 97 660 q 110 646 110 653 q 29 519 69 582 q -51 393 -11 456 m -310 97 q -361 51 -331 81 q -422 -14 -392 21 q -476 -82 -451 -49 q -511 -140 -501 -115 q -406 -26 -454 -86 q -310 97 -357 35 m 150 754 l 139 761 l 138 779 q 160 806 149 793 q 183 831 171 818 l 200 832 l 204 815 q 184 787 194 800 q 163 760 174 774 l 150 754 z "},"i":{"ha":235,"x_min":-22,"x_max":243,"o":"m 133 647 q 61 563 96 606 q 7 467 26 519 q 32 460 21 460 q 73 467 46 460 q 131 486 100 475 q 192 508 163 497 q 243 526 222 519 q 202 486 228 504 q 146 455 176 468 q 83 435 115 442 q 25 428 51 428 q -8 440 6 428 q -22 472 -22 453 q -7 517 -22 486 q 28 581 8 549 q 70 637 49 613 q 104 661 92 661 q 119 655 111 661 q 133 647 126 649 m 217 779 q 188 731 206 750 q 150 694 169 711 l 136 700 l 135 718 q 168 755 151 738 q 203 790 185 772 l 217 779 z "},"h":{"ha":417,"x_min":-42,"x_max":456,"o":"m 456 1089 q 440 1062 451 1076 q 413 1033 428 1047 q 385 1006 399 1019 q 363 981 371 992 q 273 863 319 924 q 181 738 226 801 q 92 611 135 675 q 14 486 49 547 q 73 526 38 499 q 146 583 108 554 q 218 633 183 611 q 275 654 253 654 q 299 646 290 654 q 313 624 308 638 q 318 595 317 611 q 318 563 319 579 q 317 530 317 546 q 326 505 317 514 q 358 499 336 496 q 425 522 381 501 q 401 491 418 507 q 365 468 385 475 q 313 465 338 457 q 281 503 289 472 q 275 533 276 517 q 274 566 274 550 q 276 596 275 582 q 276 618 276 610 q 238 594 263 611 q 182 557 213 578 q 119 513 151 536 q 60 469 88 489 q 12 438 32 450 q -14 425 -8 425 q -33 433 -25 425 q -42 451 -42 442 q -10 521 -42 469 q 71 640 22 572 q 178 784 119 708 q 290 926 236 860 q 386 1042 344 993 q 443 1106 428 1092 l 456 1089 z "},"g":{"ha":381,"x_min":-390,"x_max":389,"o":"m 154 357 q 106 280 139 331 q 31 168 74 229 q -62 42 -12 107 q -162 -74 -112 -22 q -260 -160 -212 -126 q -344 -194 -307 -194 q -378 -180 -365 -194 q -390 -144 -390 -165 q -362 -38 -390 -92 q -289 67 -335 15 q -186 168 -243 119 q -72 260 -129 217 q 40 341 -14 304 q 131 406 93 378 q 189 474 163 429 q 236 553 215 518 l 211 574 q 173 550 199 565 q 119 520 147 535 q 66 494 92 506 q 26 483 40 483 q 3 492 14 483 q -7 514 -7 501 q 15 560 -7 535 q 67 607 38 585 q 129 644 97 629 q 181 660 161 660 q 212 651 197 660 q 239 633 226 643 q 256 647 244 638 q 281 667 268 657 q 306 683 294 676 q 325 690 318 690 q 339 676 339 690 q 323 635 339 664 q 288 575 307 607 q 258 527 282 567 q 210 436 233 488 q 294 485 250 460 q 383 526 339 511 l 389 519 q 348 488 374 506 q 291 450 322 469 q 226 410 260 431 q 165 371 193 390 l 154 357 m 86 331 q -43 241 21 288 q -163 142 -107 194 q -267 27 -219 89 q -347 -108 -314 -35 q -354 -133 -354 -122 q -351 -146 -354 -140 q -346 -157 -349 -151 q -278 -130 -318 -158 q -196 -56 -239 -101 q -108 47 -153 -10 q -24 157 -64 103 q 46 256 15 211 q 92 324 76 300 l 86 331 m 208 614 q 178 631 196 631 q 138 619 160 631 q 94 592 115 608 q 55 556 72 575 q 28 524 38 538 l 29 517 q 124 553 75 524 q 208 614 174 583 m 246 586 l 254 582 q 269 610 264 596 l 263 614 l 246 586 z "},"a":{"ha":461,"x_min":-12,"x_max":474,"o":"m 301 642 q 319 652 311 644 q 335 660 326 660 q 344 656 339 660 q 351 649 349 651 q 323 610 339 628 q 293 573 307 592 q 269 533 279 554 q 257 485 258 513 q 308 493 282 486 q 360 508 335 500 q 410 523 385 517 q 458 529 435 529 l 474 528 q 433 499 457 513 q 381 474 408 485 q 327 457 354 464 q 278 450 300 450 q 226 499 226 450 q 231 526 226 513 q 233 553 235 539 q 185 529 213 544 q 128 499 157 514 q 71 474 99 485 q 22 463 43 463 q -3 472 7 463 q -12 496 -12 481 q 16 560 -12 528 q 85 617 44 592 q 168 659 125 643 q 240 675 211 675 q 276 667 260 675 q 301 642 292 660 m 265 625 q 251 628 258 628 q 236 628 243 628 q 178 618 210 628 q 118 592 147 608 q 67 552 89 575 q 36 503 44 529 q 155 556 99 524 q 265 625 211 589 z "},"b":{"ha":379,"x_min":-97,"x_max":414,"o":"m 64 503 q 18 456 33 474 q -9 424 3 439 q -32 391 -21 408 q -65 344 -43 374 l -89 342 l -97 364 q -60 440 -92 385 q 18 567 -28 494 q 117 723 64 640 q 221 881 171 806 q 311 1015 271 956 q 369 1101 351 1075 q 379 1117 374 1107 q 393 1126 385 1126 q 408 1123 401 1126 q 414 1111 414 1119 q 388 1064 414 1104 q 324 966 363 1024 q 242 842 286 908 q 158 715 197 775 q 94 612 119 656 q 68 556 68 568 q 125 602 89 571 q 201 665 161 633 q 277 722 240 697 q 338 746 314 746 q 365 733 354 746 q 375 704 375 721 q 349 625 375 668 q 285 545 324 582 q 203 483 247 508 q 124 458 160 458 q 88 472 103 458 q 64 503 74 485 m 332 708 q 197 622 258 674 q 76 517 136 569 q 122 501 99 501 q 188 522 156 501 q 249 571 221 542 q 300 633 278 600 q 333 694 322 667 l 332 708 z "},"™":{"ha":525,"x_min":126,"x_max":681,"o":"m 629 1067 q 572 949 600 1008 q 513 832 543 890 q 572 848 540 839 q 631 857 603 857 q 681 847 654 857 q 643 831 667 840 q 593 814 619 822 q 542 800 567 806 q 504 794 518 794 q 494 796 500 794 q 481 800 488 797 q 472 807 475 803 q 469 818 468 811 q 494 882 479 851 q 525 944 510 913 q 479 918 503 933 q 429 903 456 903 q 404 908 415 903 q 383 922 393 914 l 307 768 l 297 765 l 293 786 q 332 882 313 835 q 371 976 351 929 l 390 992 q 403 985 400 993 q 408 965 406 976 q 413 944 410 954 q 429 935 417 935 q 469 953 443 935 q 524 995 496 971 q 578 1042 551 1019 q 619 1075 604 1065 l 629 1067 m 321 1019 q 271 898 296 958 q 221 776 246 838 l 204 760 l 204 768 q 214 820 204 786 q 236 890 224 854 q 262 961 249 926 q 282 1017 275 996 q 248 1016 269 1017 q 204 1016 226 1015 q 162 1019 182 1017 q 131 1028 142 1022 q 126 1036 126 1029 q 134 1049 126 1047 q 150 1053 142 1051 q 281 1059 213 1060 q 414 1058 350 1058 q 450 1051 432 1058 q 387 1029 419 1036 q 321 1019 354 1022 z "},"¶":{"ha":528,"x_min":11,"x_max":617,"o":"m 614 994 q 607 970 617 975 q 583 964 597 965 q 552 958 568 963 q 528 936 536 954 q 424 717 474 828 q 319 497 374 606 q 297 455 314 486 q 259 383 281 424 q 213 299 238 343 q 167 219 189 256 q 126 160 144 183 q 101 136 108 136 q 88 142 94 136 q 81 156 81 149 q 91 181 81 164 q 115 216 101 197 q 141 252 128 235 q 160 279 154 269 q 341 609 251 438 q 493 953 431 781 l 310 944 q 276 853 296 906 q 234 743 257 801 q 185 624 211 685 q 133 510 160 564 q 76 412 106 456 q 19 342 47 368 l 11 340 q 111 570 56 458 q 219 797 167 682 q 169 801 199 799 q 112 813 139 804 q 65 840 85 822 q 46 889 46 857 q 63 935 46 918 q 107 960 79 953 q 209 976 144 969 q 344 988 274 983 q 483 993 415 992 q 592 994 550 994 l 614 994 z "},"µ":{"ha":410,"x_min":-143,"x_max":444,"o":"m 157 301 q 146 338 146 319 q 159 385 146 350 q 189 460 172 421 q 222 537 206 500 q 246 590 239 574 q 217 570 233 582 q 185 547 201 558 q 151 526 168 535 q 121 518 135 518 q 89 528 103 518 q 64 550 75 539 q 40 511 54 539 q 10 449 26 483 q -25 376 -7 414 q -60 308 -43 339 q -94 258 -78 278 q -124 238 -111 238 q -133 239 -128 238 q -143 242 -139 240 q -137 259 -140 250 q -129 276 -133 268 q -1 526 -64 403 q 117 779 63 649 q 136 832 128 806 q 163 881 144 858 q 179 843 179 864 q 167 780 179 811 q 141 717 156 749 q 115 654 126 686 q 103 592 103 622 q 113 558 103 575 q 167 578 139 558 q 224 628 196 597 q 280 698 253 660 q 332 773 307 736 q 378 842 357 810 q 414 892 399 874 l 439 890 l 444 871 q 438 854 442 863 q 429 839 433 846 q 306 605 363 724 q 200 363 249 486 q 183 328 193 344 q 157 301 174 313 z "},":":{"ha":260,"x_min":22,"x_max":160,"o":"m 160 628 q 143 595 160 613 q 110 578 126 578 q 94 592 94 578 q 98 608 94 597 q 107 628 101 618 q 120 645 113 638 q 135 653 128 653 q 152 645 144 653 q 160 628 160 638 m 88 496 q 71 463 88 481 q 38 446 54 446 q 22 460 22 446 q 26 476 22 465 q 35 496 29 486 q 48 513 40 506 q 63 521 56 521 q 80 513 72 521 q 88 496 88 506 z "},"±":{"ha":542,"x_min":-144,"x_max":421,"o":"m 254 596 q 294 594 268 594 q 346 591 319 594 q 393 581 372 588 q 421 560 414 574 q 403 547 414 550 q 381 543 392 543 q 307 547 344 543 q 232 551 269 550 q 213 509 226 540 q 182 445 199 478 q 149 387 165 413 q 124 361 133 361 q 109 367 115 361 q 103 381 103 372 q 114 408 103 385 q 139 459 125 431 q 165 513 153 488 q 182 546 178 538 q 144 551 163 551 q 106 550 125 550 q 76 552 90 550 q 49 563 63 554 q 74 583 53 576 q 121 591 94 589 q 173 593 147 593 q 211 594 199 593 q 253 696 233 644 q 301 796 274 747 l 315 800 l 325 786 q 313 740 321 764 q 294 690 304 715 q 273 641 283 665 q 254 596 263 617 m -144 267 q -114 281 -140 275 q -48 292 -87 288 q 40 299 -8 296 q 135 303 88 301 q 224 306 182 306 q 292 307 265 307 q 351 285 328 307 l 329 268 q 141 249 240 250 q -50 249 42 249 l -110 249 q -131 252 -121 249 q -144 267 -140 256 z "},"”":{"ha":301,"x_min":86,"x_max":269,"o":"m 86 953 q 124 1016 106 985 q 163 1078 143 1047 l 182 1090 l 190 1068 q 156 997 179 1029 q 93 947 132 964 l 86 953 m 165 953 q 203 1016 185 985 q 242 1078 222 1047 l 261 1090 l 269 1068 q 235 997 258 1029 q 172 947 211 964 l 165 953 z "},"“":{"ha":301,"x_min":86,"x_max":269,"o":"m 269 1085 q 231 1022 250 1053 q 193 960 213 990 l 174 947 l 165 969 q 200 1041 176 1008 q 263 1090 224 1074 l 269 1085 m 190 1085 q 152 1022 171 1053 q 114 960 133 990 l 94 947 l 86 969 q 121 1041 97 1008 q 183 1090 144 1074 l 190 1085 z "},"’":{"ha":201,"x_min":86,"x_max":190,"o":"m 86 953 q 124 1016 106 985 q 163 1078 143 1047 l 182 1090 l 190 1068 q 156 997 179 1029 q 93 947 132 964 l 86 953 z "},"‘":{"ha":201,"x_min":86,"x_max":190,"o":"m 190 1085 q 152 1022 171 1053 q 114 960 133 990 l 94 947 l 86 969 q 121 1041 97 1008 q 183 1090 144 1074 l 190 1085 z "},"£":{"ha":619,"x_min":-17,"x_max":576,"o":"m 576 819 q 572 796 576 811 q 563 765 568 781 q 551 736 557 750 q 539 715 544 722 l 531 717 q 536 765 533 740 q 539 815 539 790 q 519 875 539 850 q 459 833 490 868 q 400 754 428 799 q 349 664 372 710 q 314 592 326 618 l 453 592 q 472 592 460 592 q 497 592 485 593 q 519 585 510 590 q 529 571 529 581 q 524 557 529 561 q 510 552 518 553 q 492 553 501 551 q 478 554 483 554 l 296 554 q 260 476 278 515 q 228 397 243 438 l 232 374 q 261 344 246 360 q 293 313 276 328 q 329 289 310 299 q 369 279 349 279 q 407 286 392 279 q 434 304 422 293 q 456 328 446 315 q 482 353 467 340 l 508 358 l 507 335 q 447 266 479 294 q 364 238 415 238 q 319 248 342 238 q 275 274 296 258 q 236 308 254 289 q 204 342 218 326 q 174 281 193 321 q 129 203 154 242 q 77 135 104 164 q 24 107 50 107 q -8 126 1 107 q -17 164 -17 144 q -6 231 -17 197 q 22 295 4 264 q 64 352 40 326 q 114 397 88 378 q 152 412 131 408 q 193 421 174 415 l 253 556 l 207 556 l 189 556 l 169 571 l 189 586 q 216 589 203 589 q 243 589 229 589 q 275 613 257 589 q 313 674 293 638 q 357 754 333 711 q 407 834 381 797 q 461 895 433 871 q 519 919 489 919 q 549 909 538 919 q 566 883 560 899 q 574 851 572 868 q 576 819 576 833 m 153 374 q 103 347 126 374 q 62 285 79 321 q 34 211 44 249 q 24 151 24 174 q 72 189 49 163 q 114 248 94 215 q 147 314 133 281 q 168 372 161 347 l 153 374 z "},"@":{"ha":974,"x_min":-22,"x_max":910,"o":"m 472 481 q 438 458 458 471 q 397 433 418 444 q 353 413 375 421 q 315 404 332 404 q 278 419 292 404 q 264 457 264 433 q 281 530 264 489 q 324 606 297 571 q 385 666 351 642 q 454 690 419 690 q 498 680 476 690 q 536 652 519 669 q 563 613 553 635 q 574 569 574 592 q 569 557 574 563 q 557 553 564 551 l 539 572 q 510 628 532 601 q 454 654 488 654 q 398 633 425 654 q 350 580 371 611 q 317 515 329 549 q 304 456 304 481 l 304 449 q 322 442 314 442 q 362 457 336 442 q 415 490 388 472 q 467 524 443 508 q 501 539 490 539 q 515 533 510 539 q 521 518 521 526 q 516 485 521 501 q 511 451 511 469 q 520 428 511 436 q 543 419 529 419 q 624 449 578 419 q 711 522 669 479 q 781 613 753 565 q 810 696 810 661 q 788 780 810 747 q 731 831 765 813 q 653 858 696 850 q 568 865 610 865 q 450 850 513 865 q 326 807 388 835 q 210 740 265 779 q 112 651 154 700 q 44 545 69 603 q 19 425 19 488 q 44 333 19 371 q 106 274 68 296 q 192 242 144 251 q 285 232 239 232 q 490 254 389 232 q 689 314 592 276 q 731 333 700 318 q 797 365 763 349 q 860 394 832 381 q 892 407 888 407 q 904 401 899 407 q 910 389 910 396 q 870 338 910 363 q 769 291 831 314 q 633 249 707 268 q 489 217 558 231 q 363 195 419 203 q 283 188 307 188 q 174 201 229 188 q 76 244 119 215 q 5 317 32 272 q -22 425 -22 363 q 4 556 -22 494 q 75 672 31 618 q 178 767 119 725 q 303 840 238 810 q 435 887 368 871 q 564 903 503 903 q 660 893 610 903 q 751 860 710 883 q 820 800 793 838 q 847 706 847 763 q 817 605 847 661 q 740 499 786 549 q 641 416 694 450 q 543 382 588 382 q 507 391 521 382 q 485 414 493 400 q 475 445 478 428 q 472 481 472 463 z "},"^":{"ha":249,"x_min":31,"x_max":226,"o":"m 190 886 q 168 897 175 889 q 158 913 161 904 q 156 934 156 922 q 154 957 156 946 q 103 917 129 938 q 47 882 76 897 l 31 886 l 32 903 q 118 974 76 936 q 206 1044 160 1013 l 221 1044 l 226 1028 q 210 997 218 1010 q 196 969 201 983 q 189 940 190 956 q 193 901 188 924 l 190 886 z "}}}
